<mxfile host="app.diagrams.net" modified="2023-06-07T04:45:30.586Z" agent="Mozilla/5.0 (Windows NT 10.0; Win64; x64) AppleWebKit/537.36 (KHTML, like Gecko) Chrome/114.0.0.0 Safari/537.36 Edg/114.0.1823.37" etag="yj2VPfA35RU800466djT" version="21.3.7" type="device">
  <diagram name="Page-1" id="H6eK7-1tzad92E6d6zle">
    <mxGraphModel dx="2206" dy="788" grid="1" gridSize="10" guides="1" tooltips="1" connect="1" arrows="1" fold="1" page="1" pageScale="1" pageWidth="827" pageHeight="1169" math="0" shadow="0">
      <root>
        <mxCell id="0" />
        <mxCell id="1" parent="0" />
        <mxCell id="SSOGD9VV4sk8QEWSTlWP-1" value="&lt;b&gt;&lt;font style=&quot;font-size: 14px;&quot;&gt;Why any company should use cloud ?&lt;/font&gt;&lt;/b&gt;" style="text;html=1;strokeColor=none;fillColor=none;align=left;verticalAlign=middle;whiteSpace=wrap;rounded=0;" parent="1" vertex="1">
          <mxGeometry x="170" y="30" width="440" height="50" as="geometry" />
        </mxCell>
        <mxCell id="SSOGD9VV4sk8QEWSTlWP-2" value="Budget" style="text;html=1;strokeColor=none;fillColor=none;align=center;verticalAlign=middle;whiteSpace=wrap;rounded=0;fontSize=14;" parent="1" vertex="1">
          <mxGeometry x="80" y="110" width="60" height="30" as="geometry" />
        </mxCell>
        <mxCell id="SSOGD9VV4sk8QEWSTlWP-3" value="Flexibility" style="text;html=1;strokeColor=none;fillColor=none;align=center;verticalAlign=middle;whiteSpace=wrap;rounded=0;fontSize=14;" parent="1" vertex="1">
          <mxGeometry x="180" y="110" width="60" height="30" as="geometry" />
        </mxCell>
        <mxCell id="SSOGD9VV4sk8QEWSTlWP-4" value="Scalibility" style="text;html=1;strokeColor=none;fillColor=none;align=center;verticalAlign=middle;whiteSpace=wrap;rounded=0;fontSize=14;" parent="1" vertex="1">
          <mxGeometry x="290" y="110" width="60" height="30" as="geometry" />
        </mxCell>
        <mxCell id="SSOGD9VV4sk8QEWSTlWP-5" value="Automation" style="text;html=1;strokeColor=none;fillColor=none;align=center;verticalAlign=middle;whiteSpace=wrap;rounded=0;fontSize=14;" parent="1" vertex="1">
          <mxGeometry x="390" y="110" width="60" height="30" as="geometry" />
        </mxCell>
        <mxCell id="SSOGD9VV4sk8QEWSTlWP-14" value="CyberSecurity Law" style="text;html=1;strokeColor=none;fillColor=none;align=left;verticalAlign=middle;whiteSpace=wrap;rounded=0;fontSize=14;" parent="1" vertex="1">
          <mxGeometry x="120" y="140" width="190" height="30" as="geometry" />
        </mxCell>
        <mxCell id="SSOGD9VV4sk8QEWSTlWP-15" value="Personal Details of Citizen or Business&amp;nbsp;" style="text;html=1;strokeColor=none;fillColor=none;align=left;verticalAlign=middle;whiteSpace=wrap;rounded=0;fontSize=14;" parent="1" vertex="1">
          <mxGeometry x="180" y="170" width="330" height="30" as="geometry" />
        </mxCell>
        <mxCell id="SSOGD9VV4sk8QEWSTlWP-16" value="Financial&amp;nbsp; Details of Citizen or Business&amp;nbsp;" style="text;html=1;strokeColor=none;fillColor=none;align=left;verticalAlign=middle;whiteSpace=wrap;rounded=0;fontSize=14;" parent="1" vertex="1">
          <mxGeometry x="180" y="190" width="330" height="30" as="geometry" />
        </mxCell>
        <mxCell id="SSOGD9VV4sk8QEWSTlWP-17" value="&lt;font color=&quot;#ff3333&quot;&gt;Data need to be store in country.&lt;/font&gt;" style="text;html=1;strokeColor=none;fillColor=none;align=left;verticalAlign=middle;whiteSpace=wrap;rounded=0;fontSize=14;" parent="1" vertex="1">
          <mxGeometry x="470" y="170" width="290" height="30" as="geometry" />
        </mxCell>
        <mxCell id="SSOGD9VV4sk8QEWSTlWP-18" value="" style="sketch=0;pointerEvents=1;shadow=0;dashed=0;html=1;strokeColor=none;fillColor=#005F4B;labelPosition=center;verticalLabelPosition=bottom;verticalAlign=top;align=center;outlineConnect=0;shape=mxgraph.veeam2.datacenter;fontSize=14;fontColor=#FF3333;" parent="1" vertex="1">
          <mxGeometry x="510" y="200" width="110" height="80" as="geometry" />
        </mxCell>
        <mxCell id="SSOGD9VV4sk8QEWSTlWP-19" value="&lt;font color=&quot;#ff3333&quot;&gt;To Store Data company need to setup Datacenter. Its billion Dollar investment.&lt;/font&gt;" style="text;html=1;strokeColor=none;fillColor=none;align=left;verticalAlign=middle;whiteSpace=wrap;rounded=0;fontSize=14;" parent="1" vertex="1">
          <mxGeometry x="470" y="290" width="290" height="30" as="geometry" />
        </mxCell>
        <mxCell id="SSOGD9VV4sk8QEWSTlWP-20" value="&lt;font color=&quot;#ff3333&quot;&gt;Cloud Provider already setup Datacenter in Multiple country . These&amp;nbsp;DC fully comply with country law and Industry&amp;nbsp;specific compliance.&lt;/font&gt;" style="text;html=1;strokeColor=none;fillColor=none;align=left;verticalAlign=middle;whiteSpace=wrap;rounded=0;fontSize=14;fontStyle=1" parent="1" vertex="1">
          <mxGeometry x="80" y="330" width="640" height="30" as="geometry" />
        </mxCell>
        <mxCell id="SSOGD9VV4sk8QEWSTlWP-21" value="USA" style="rounded=1;whiteSpace=wrap;html=1;fontSize=14;fontColor=#FF3333;" parent="1" vertex="1">
          <mxGeometry x="40" y="480" width="120" height="40" as="geometry" />
        </mxCell>
        <mxCell id="SSOGD9VV4sk8QEWSTlWP-22" value="APAC" style="rounded=1;whiteSpace=wrap;html=1;fontSize=14;fontColor=#FF3333;" parent="1" vertex="1">
          <mxGeometry x="320" y="480" width="120" height="40" as="geometry" />
        </mxCell>
        <mxCell id="SSOGD9VV4sk8QEWSTlWP-23" value="Middle-East" style="rounded=1;whiteSpace=wrap;html=1;fontSize=14;fontColor=#FF3333;" parent="1" vertex="1">
          <mxGeometry x="510" y="480" width="120" height="40" as="geometry" />
        </mxCell>
        <mxCell id="SSOGD9VV4sk8QEWSTlWP-24" value="Non-Earthquake prone area&lt;br&gt;Proximity of costal area&lt;br&gt;Volume of Business&lt;br&gt;Stability / Taxes / Policy&amp;nbsp;" style="text;html=1;strokeColor=none;fillColor=none;align=left;verticalAlign=middle;whiteSpace=wrap;rounded=0;fontSize=14;fontColor=#FF3333;" parent="1" vertex="1">
          <mxGeometry x="10" y="400" width="350" height="30" as="geometry" />
        </mxCell>
        <mxCell id="SSOGD9VV4sk8QEWSTlWP-25" value="East-US" style="rounded=1;whiteSpace=wrap;html=1;fontSize=14;fontColor=#FF3333;" parent="1" vertex="1">
          <mxGeometry x="-90" y="550" width="90" height="40" as="geometry" />
        </mxCell>
        <mxCell id="SSOGD9VV4sk8QEWSTlWP-26" value="West-US" style="rounded=1;whiteSpace=wrap;html=1;fontSize=14;fontColor=#FF3333;" parent="1" vertex="1">
          <mxGeometry x="20" y="550" width="90" height="40" as="geometry" />
        </mxCell>
        <mxCell id="SSOGD9VV4sk8QEWSTlWP-27" value="Central-US" style="rounded=1;whiteSpace=wrap;html=1;fontSize=14;fontColor=#FF3333;" parent="1" vertex="1">
          <mxGeometry x="130" y="550" width="90" height="40" as="geometry" />
        </mxCell>
        <mxCell id="SSOGD9VV4sk8QEWSTlWP-28" value="Singapore" style="rounded=1;whiteSpace=wrap;html=1;fontSize=14;fontColor=#FF3333;" parent="1" vertex="1">
          <mxGeometry x="270" y="550" width="90" height="40" as="geometry" />
        </mxCell>
        <mxCell id="SSOGD9VV4sk8QEWSTlWP-29" value="Japan" style="rounded=1;whiteSpace=wrap;html=1;fontSize=14;fontColor=#FF3333;" parent="1" vertex="1">
          <mxGeometry x="400" y="550" width="90" height="40" as="geometry" />
        </mxCell>
        <mxCell id="SSOGD9VV4sk8QEWSTlWP-30" value="" style="sketch=0;pointerEvents=1;shadow=0;dashed=0;html=1;strokeColor=none;fillColor=#005F4B;labelPosition=center;verticalLabelPosition=bottom;verticalAlign=top;align=center;outlineConnect=0;shape=mxgraph.veeam2.datacenter;fontSize=14;fontColor=#FF3333;" parent="1" vertex="1">
          <mxGeometry x="-80" y="620" width="50" height="30" as="geometry" />
        </mxCell>
        <mxCell id="SSOGD9VV4sk8QEWSTlWP-31" value="" style="sketch=0;pointerEvents=1;shadow=0;dashed=0;html=1;strokeColor=none;fillColor=#005F4B;labelPosition=center;verticalLabelPosition=bottom;verticalAlign=top;align=center;outlineConnect=0;shape=mxgraph.veeam2.datacenter;fontSize=14;fontColor=#FF3333;" parent="1" vertex="1">
          <mxGeometry x="40" y="620" width="50" height="30" as="geometry" />
        </mxCell>
        <mxCell id="SSOGD9VV4sk8QEWSTlWP-32" value="" style="sketch=0;pointerEvents=1;shadow=0;dashed=0;html=1;strokeColor=none;fillColor=#005F4B;labelPosition=center;verticalLabelPosition=bottom;verticalAlign=top;align=center;outlineConnect=0;shape=mxgraph.veeam2.datacenter;fontSize=14;fontColor=#FF3333;" parent="1" vertex="1">
          <mxGeometry x="140" y="620" width="50" height="30" as="geometry" />
        </mxCell>
        <mxCell id="SSOGD9VV4sk8QEWSTlWP-33" value="" style="sketch=0;pointerEvents=1;shadow=0;dashed=0;html=1;strokeColor=none;fillColor=#005F4B;labelPosition=center;verticalLabelPosition=bottom;verticalAlign=top;align=center;outlineConnect=0;shape=mxgraph.veeam2.datacenter;fontSize=14;fontColor=#FF3333;" parent="1" vertex="1">
          <mxGeometry x="280" y="620" width="50" height="30" as="geometry" />
        </mxCell>
        <mxCell id="SSOGD9VV4sk8QEWSTlWP-34" value="" style="sketch=0;pointerEvents=1;shadow=0;dashed=0;html=1;strokeColor=none;fillColor=#005F4B;labelPosition=center;verticalLabelPosition=bottom;verticalAlign=top;align=center;outlineConnect=0;shape=mxgraph.veeam2.datacenter;fontSize=14;fontColor=#FF3333;" parent="1" vertex="1">
          <mxGeometry x="410" y="620" width="50" height="30" as="geometry" />
        </mxCell>
        <mxCell id="SSOGD9VV4sk8QEWSTlWP-35" value="" style="aspect=fixed;perimeter=ellipsePerimeter;html=1;align=center;shadow=0;dashed=0;spacingTop=3;image;image=img/lib/active_directory/database.svg;fontSize=14;fontColor=#FF3333;" parent="1" vertex="1">
          <mxGeometry x="-50" y="610" width="30" height="22.2" as="geometry" />
        </mxCell>
        <mxCell id="SSOGD9VV4sk8QEWSTlWP-36" value="" style="sketch=0;pointerEvents=1;shadow=0;dashed=0;html=1;strokeColor=none;fillColor=#005F4B;labelPosition=center;verticalLabelPosition=bottom;verticalAlign=top;align=center;outlineConnect=0;shape=mxgraph.veeam2.datacenter;fontSize=14;fontColor=#FF3333;" parent="1" vertex="1">
          <mxGeometry x="-120" y="690" width="50" height="30" as="geometry" />
        </mxCell>
        <mxCell id="SSOGD9VV4sk8QEWSTlWP-37" value="" style="sketch=0;pointerEvents=1;shadow=0;dashed=0;html=1;strokeColor=none;fillColor=#005F4B;labelPosition=center;verticalLabelPosition=bottom;verticalAlign=top;align=center;outlineConnect=0;shape=mxgraph.veeam2.datacenter;fontSize=14;fontColor=#FF3333;" parent="1" vertex="1">
          <mxGeometry x="-50" y="690" width="50" height="30" as="geometry" />
        </mxCell>
        <mxCell id="SSOGD9VV4sk8QEWSTlWP-38" value="" style="sketch=0;pointerEvents=1;shadow=0;dashed=0;html=1;strokeColor=none;fillColor=#005F4B;labelPosition=center;verticalLabelPosition=bottom;verticalAlign=top;align=center;outlineConnect=0;shape=mxgraph.veeam2.datacenter;fontSize=14;fontColor=#FF3333;" parent="1" vertex="1">
          <mxGeometry x="10" y="660" width="50" height="30" as="geometry" />
        </mxCell>
        <mxCell id="SSOGD9VV4sk8QEWSTlWP-39" value="" style="sketch=0;pointerEvents=1;shadow=0;dashed=0;html=1;strokeColor=none;fillColor=#005F4B;labelPosition=center;verticalLabelPosition=bottom;verticalAlign=top;align=center;outlineConnect=0;shape=mxgraph.veeam2.datacenter;fontSize=14;fontColor=#FF3333;" parent="1" vertex="1">
          <mxGeometry x="75" y="660" width="50" height="30" as="geometry" />
        </mxCell>
        <mxCell id="SSOGD9VV4sk8QEWSTlWP-40" value="" style="endArrow=none;html=1;rounded=0;fontSize=14;fontColor=#FF3333;" parent="1" source="SSOGD9VV4sk8QEWSTlWP-36" target="SSOGD9VV4sk8QEWSTlWP-30" edge="1">
          <mxGeometry width="50" height="50" relative="1" as="geometry">
            <mxPoint x="300" y="740" as="sourcePoint" />
            <mxPoint x="350" y="690" as="targetPoint" />
          </mxGeometry>
        </mxCell>
        <mxCell id="SSOGD9VV4sk8QEWSTlWP-41" value="" style="endArrow=none;html=1;rounded=0;fontSize=14;fontColor=#FF3333;" parent="1" source="SSOGD9VV4sk8QEWSTlWP-37" target="SSOGD9VV4sk8QEWSTlWP-30" edge="1">
          <mxGeometry width="50" height="50" relative="1" as="geometry">
            <mxPoint x="-76" y="700" as="sourcePoint" />
            <mxPoint x="-54" y="660" as="targetPoint" />
          </mxGeometry>
        </mxCell>
        <mxCell id="SSOGD9VV4sk8QEWSTlWP-42" value="" style="endArrow=none;html=1;rounded=0;fontSize=14;fontColor=#FF3333;" parent="1" source="SSOGD9VV4sk8QEWSTlWP-37" target="SSOGD9VV4sk8QEWSTlWP-36" edge="1">
          <mxGeometry width="50" height="50" relative="1" as="geometry">
            <mxPoint x="-21" y="700" as="sourcePoint" />
            <mxPoint x="-39" y="660" as="targetPoint" />
          </mxGeometry>
        </mxCell>
        <mxCell id="SSOGD9VV4sk8QEWSTlWP-43" value="" style="aspect=fixed;perimeter=ellipsePerimeter;html=1;align=center;shadow=0;dashed=0;spacingTop=3;image;image=img/lib/active_directory/database.svg;fontSize=14;fontColor=#FF3333;" parent="1" vertex="1">
          <mxGeometry x="-20" y="693.9" width="30" height="22.2" as="geometry" />
        </mxCell>
        <mxCell id="SSOGD9VV4sk8QEWSTlWP-44" value="" style="aspect=fixed;perimeter=ellipsePerimeter;html=1;align=center;shadow=0;dashed=0;spacingTop=3;image;image=img/lib/active_directory/database.svg;fontSize=14;fontColor=#FF3333;" parent="1" vertex="1">
          <mxGeometry x="-120" y="697.8" width="30" height="22.2" as="geometry" />
        </mxCell>
        <mxCell id="SSOGD9VV4sk8QEWSTlWP-45" value="Geography" style="text;html=1;strokeColor=none;fillColor=none;align=center;verticalAlign=middle;whiteSpace=wrap;rounded=0;fontSize=14;fontColor=#FF3333;fontStyle=1" parent="1" vertex="1">
          <mxGeometry x="680" y="490" width="60" height="30" as="geometry" />
        </mxCell>
        <mxCell id="SSOGD9VV4sk8QEWSTlWP-46" value="Region" style="text;html=1;strokeColor=default;fillColor=default;align=center;verticalAlign=top;whiteSpace=wrap;rounded=0;fontSize=14;fontColor=#FF3333;fontStyle=1;shadow=0;dashed=0;spacingTop=3;labelBackgroundColor=default;" parent="1" vertex="1">
          <mxGeometry x="680" y="540" width="60" height="30" as="geometry" />
        </mxCell>
        <mxCell id="SSOGD9VV4sk8QEWSTlWP-47" value="Avalability Zone" style="text;html=1;strokeColor=default;fillColor=default;align=center;verticalAlign=top;whiteSpace=wrap;rounded=0;fontSize=14;fontColor=#FF3333;fontStyle=1;shadow=0;dashed=0;spacingTop=3;labelBackgroundColor=default;" parent="1" vertex="1">
          <mxGeometry x="655" y="590" width="110" height="30" as="geometry" />
        </mxCell>
        <mxCell id="SSOGD9VV4sk8QEWSTlWP-48" value="Datacenter" style="text;html=1;strokeColor=default;fillColor=default;align=center;verticalAlign=top;whiteSpace=wrap;rounded=0;fontSize=14;fontColor=#FF3333;fontStyle=1;shadow=0;dashed=0;spacingTop=3;labelBackgroundColor=default;" parent="1" vertex="1">
          <mxGeometry x="655" y="640" width="110" height="30" as="geometry" />
        </mxCell>
        <mxCell id="SSOGD9VV4sk8QEWSTlWP-49" value="" style="shape=flexArrow;endArrow=classic;html=1;rounded=0;fontSize=14;fontColor=#FF3333;entryX=0.608;entryY=-0.077;entryDx=0;entryDy=0;entryPerimeter=0;exitX=0.667;exitY=1;exitDx=0;exitDy=0;exitPerimeter=0;" parent="1" source="SSOGD9VV4sk8QEWSTlWP-45" target="SSOGD9VV4sk8QEWSTlWP-46" edge="1">
          <mxGeometry width="50" height="50" relative="1" as="geometry">
            <mxPoint x="300" y="650" as="sourcePoint" />
            <mxPoint x="350" y="600" as="targetPoint" />
          </mxGeometry>
        </mxCell>
        <mxCell id="SSOGD9VV4sk8QEWSTlWP-50" value="" style="shape=flexArrow;endArrow=classic;html=1;rounded=0;fontSize=14;fontColor=#FF3333;entryX=0.608;entryY=-0.077;entryDx=0;entryDy=0;entryPerimeter=0;exitX=0.667;exitY=1;exitDx=0;exitDy=0;exitPerimeter=0;" parent="1" edge="1">
          <mxGeometry width="50" height="50" relative="1" as="geometry">
            <mxPoint x="712" y="572" as="sourcePoint" />
            <mxPoint x="708" y="590" as="targetPoint" />
          </mxGeometry>
        </mxCell>
        <mxCell id="SSOGD9VV4sk8QEWSTlWP-51" value="" style="shape=flexArrow;endArrow=classic;html=1;rounded=0;fontSize=14;fontColor=#FF3333;entryX=0.608;entryY=-0.077;entryDx=0;entryDy=0;entryPerimeter=0;exitX=0.667;exitY=1;exitDx=0;exitDy=0;exitPerimeter=0;width=22.06896551724138;endSize=3.144827586206896;" parent="1" edge="1">
          <mxGeometry width="50" height="50" relative="1" as="geometry">
            <mxPoint x="722" y="620" as="sourcePoint" />
            <mxPoint x="718" y="638" as="targetPoint" />
          </mxGeometry>
        </mxCell>
        <mxCell id="SSOGD9VV4sk8QEWSTlWP-52" value="Sometime one or more service stopped working&amp;nbsp;&lt;br&gt;Sometime some feature of a service not working&lt;br&gt;Sometime some service not able to launch" style="text;html=1;strokeColor=none;fillColor=none;align=left;verticalAlign=middle;whiteSpace=wrap;rounded=0;fontSize=14;fontColor=#FF3333;fontStyle=1" parent="1" vertex="1">
          <mxGeometry x="170" y="730" width="470" height="30" as="geometry" />
        </mxCell>
        <mxCell id="SSOGD9VV4sk8QEWSTlWP-53" value="Check Health Status" style="text;html=1;strokeColor=none;fillColor=none;align=center;verticalAlign=middle;whiteSpace=wrap;rounded=0;fontSize=14;fontColor=#0000FF;fontStyle=1" parent="1" vertex="1">
          <mxGeometry x="510" y="730" width="170" height="30" as="geometry" />
        </mxCell>
        <mxCell id="SSOGD9VV4sk8QEWSTlWP-54" value="Latency Issues when we access any service" style="text;html=1;strokeColor=none;fillColor=none;align=left;verticalAlign=middle;whiteSpace=wrap;rounded=0;fontSize=14;fontColor=#FF3333;fontStyle=1" parent="1" vertex="1">
          <mxGeometry x="170" y="820" width="335" height="30" as="geometry" />
        </mxCell>
        <mxCell id="SSOGD9VV4sk8QEWSTlWP-55" value="Latency Check" style="text;html=1;strokeColor=none;fillColor=none;align=center;verticalAlign=middle;whiteSpace=wrap;rounded=0;fontSize=14;fontColor=#0000FF;fontStyle=1" parent="1" vertex="1">
          <mxGeometry x="505" y="820" width="170" height="30" as="geometry" />
        </mxCell>
        <mxCell id="SSOGD9VV4sk8QEWSTlWP-56" value="Core Service" style="rounded=0;whiteSpace=wrap;html=1;fontSize=14;fontColor=#0000FF;fontStyle=1" parent="1" vertex="1">
          <mxGeometry x="250" y="880" width="120" height="30" as="geometry" />
        </mxCell>
        <mxCell id="SSOGD9VV4sk8QEWSTlWP-57" value="Compute" style="rounded=0;whiteSpace=wrap;html=1;fontSize=14;fontColor=#FF3333;fontStyle=1" parent="1" vertex="1">
          <mxGeometry x="-60" y="920" width="90" height="40" as="geometry" />
        </mxCell>
        <mxCell id="SSOGD9VV4sk8QEWSTlWP-58" value="Data Storage" style="rounded=0;whiteSpace=wrap;html=1;fontSize=14;fontColor=#FF3333;fontStyle=1" parent="1" vertex="1">
          <mxGeometry x="80" y="920" width="90" height="40" as="geometry" />
        </mxCell>
        <mxCell id="SSOGD9VV4sk8QEWSTlWP-59" value="Network Service" style="rounded=0;whiteSpace=wrap;html=1;fontSize=14;fontColor=#FF3333;fontStyle=1" parent="1" vertex="1">
          <mxGeometry x="240" y="920" width="140" height="40" as="geometry" />
        </mxCell>
        <mxCell id="SSOGD9VV4sk8QEWSTlWP-60" value="App Service" style="rounded=0;whiteSpace=wrap;html=1;fontSize=14;fontColor=#FF3333;fontStyle=1" parent="1" vertex="1">
          <mxGeometry x="440" y="920" width="140" height="40" as="geometry" />
        </mxCell>
        <mxCell id="SSOGD9VV4sk8QEWSTlWP-61" value="" style="sketch=0;points=[[0,0,0],[0.25,0,0],[0.5,0,0],[0.75,0,0],[1,0,0],[0,1,0],[0.25,1,0],[0.5,1,0],[0.75,1,0],[1,1,0],[0,0.25,0],[0,0.5,0],[0,0.75,0],[1,0.25,0],[1,0.5,0],[1,0.75,0]];outlineConnect=0;fontColor=#232F3E;gradientColor=#F78E04;gradientDirection=north;fillColor=#D05C17;strokeColor=#ffffff;dashed=0;verticalLabelPosition=bottom;verticalAlign=top;align=center;html=1;fontSize=12;fontStyle=0;aspect=fixed;shape=mxgraph.aws4.resourceIcon;resIcon=mxgraph.aws4.ec2;" parent="1" vertex="1">
          <mxGeometry x="-45" y="970" width="60" height="60" as="geometry" />
        </mxCell>
        <mxCell id="SSOGD9VV4sk8QEWSTlWP-62" value="" style="sketch=0;outlineConnect=0;fontColor=#232F3E;gradientColor=none;fillColor=#3F8624;strokeColor=none;dashed=0;verticalLabelPosition=bottom;verticalAlign=top;align=center;html=1;fontSize=12;fontStyle=0;aspect=fixed;pointerEvents=1;shape=mxgraph.aws4.bucket_with_objects;" parent="1" vertex="1">
          <mxGeometry x="60" y="970" width="57.69" height="60" as="geometry" />
        </mxCell>
        <mxCell id="SSOGD9VV4sk8QEWSTlWP-63" value="" style="sketch=0;outlineConnect=0;fontColor=#232F3E;gradientColor=none;fillColor=#2E27AD;strokeColor=none;dashed=0;verticalLabelPosition=bottom;verticalAlign=top;align=center;html=1;fontSize=12;fontStyle=0;aspect=fixed;pointerEvents=1;shape=mxgraph.aws4.rds_instance_alt;" parent="1" vertex="1">
          <mxGeometry x="125" y="970" width="60" height="60" as="geometry" />
        </mxCell>
        <mxCell id="SSOGD9VV4sk8QEWSTlWP-64" value="" style="outlineConnect=0;dashed=0;verticalLabelPosition=bottom;verticalAlign=top;align=center;html=1;shape=mxgraph.aws3.virtual_private_cloud;fillColor=#F58534;gradientColor=none;fontSize=14;fontColor=#FF3333;" parent="1" vertex="1">
          <mxGeometry x="275.25" y="970" width="79.5" height="54" as="geometry" />
        </mxCell>
        <mxCell id="SSOGD9VV4sk8QEWSTlWP-65" value="" style="outlineConnect=0;dashed=0;verticalLabelPosition=bottom;verticalAlign=top;align=center;html=1;shape=mxgraph.aws3.elastic_beanstalk;fillColor=#F58534;gradientColor=none;fontSize=14;fontColor=#FF3333;" parent="1" vertex="1">
          <mxGeometry x="470" y="970" width="60" height="70" as="geometry" />
        </mxCell>
        <mxCell id="SSOGD9VV4sk8QEWSTlWP-66" value="EC2" style="text;html=1;strokeColor=none;fillColor=none;align=center;verticalAlign=middle;whiteSpace=wrap;rounded=0;fontSize=14;fontColor=#FF3333;fontStyle=1" parent="1" vertex="1">
          <mxGeometry x="-45" y="1030" width="60" height="30" as="geometry" />
        </mxCell>
        <mxCell id="SSOGD9VV4sk8QEWSTlWP-67" value="S3" style="text;html=1;strokeColor=none;fillColor=none;align=center;verticalAlign=middle;whiteSpace=wrap;rounded=0;fontSize=14;fontColor=#FF3333;fontStyle=1" parent="1" vertex="1">
          <mxGeometry x="57.69" y="1030" width="60" height="30" as="geometry" />
        </mxCell>
        <mxCell id="SSOGD9VV4sk8QEWSTlWP-68" value="RDS" style="text;html=1;strokeColor=none;fillColor=none;align=center;verticalAlign=middle;whiteSpace=wrap;rounded=0;fontSize=14;fontColor=#FF3333;fontStyle=1" parent="1" vertex="1">
          <mxGeometry x="125" y="1030" width="60" height="30" as="geometry" />
        </mxCell>
        <mxCell id="SSOGD9VV4sk8QEWSTlWP-69" value="Elastic Bean Stalk" style="text;html=1;strokeColor=none;fillColor=none;align=center;verticalAlign=middle;whiteSpace=wrap;rounded=0;fontSize=14;fontColor=#FF3333;fontStyle=1" parent="1" vertex="1">
          <mxGeometry x="450" y="1040" width="130" height="30" as="geometry" />
        </mxCell>
        <mxCell id="SSOGD9VV4sk8QEWSTlWP-70" value="Provisioning&amp;nbsp;&lt;br&gt;Scaling&amp;nbsp;&lt;br&gt;High Availability" style="text;html=1;strokeColor=none;fillColor=none;align=left;verticalAlign=middle;whiteSpace=wrap;rounded=0;fontSize=14;fontColor=#FF3333;fontStyle=1" parent="1" vertex="1">
          <mxGeometry x="-20" y="1110" width="150" height="30" as="geometry" />
        </mxCell>
        <mxCell id="SSOGD9VV4sk8QEWSTlWP-71" value="Monitor&lt;br&gt;&lt;span style=&quot;white-space: pre;&quot;&gt;&#x9;&lt;/span&gt;Performance&lt;br&gt;&amp;nbsp; &amp;nbsp; &amp;nbsp; &amp;nbsp; Security Breaches&lt;br&gt;&amp;nbsp; &amp;nbsp; &amp;nbsp; &amp;nbsp; Availability&lt;br&gt;&amp;nbsp; &amp;nbsp; &amp;nbsp; &amp;nbsp; Services Issues&lt;br&gt;" style="text;html=1;strokeColor=none;fillColor=none;align=left;verticalAlign=middle;whiteSpace=wrap;rounded=0;fontSize=14;fontColor=#FF3333;fontStyle=1" parent="1" vertex="1">
          <mxGeometry x="180" y="1110" width="170" height="30" as="geometry" />
        </mxCell>
        <mxCell id="SSOGD9VV4sk8QEWSTlWP-72" value="Monitor&lt;br&gt;&lt;span style=&quot;white-space: pre;&quot;&gt;&#x9;&lt;/span&gt;Backup&lt;br&gt;&amp;nbsp; &amp;nbsp; &amp;nbsp; &amp;nbsp; &amp;nbsp;Update&amp;nbsp;" style="text;html=1;strokeColor=none;fillColor=none;align=left;verticalAlign=middle;whiteSpace=wrap;rounded=0;fontSize=14;fontColor=#FF3333;fontStyle=1" parent="1" vertex="1">
          <mxGeometry x="370" y="1100" width="170" height="30" as="geometry" />
        </mxCell>
        <mxCell id="SSOGD9VV4sk8QEWSTlWP-73" value="" style="sketch=0;points=[[0,0,0],[0.25,0,0],[0.5,0,0],[0.75,0,0],[1,0,0],[0,1,0],[0.25,1,0],[0.5,1,0],[0.75,1,0],[1,1,0],[0,0.25,0],[0,0.5,0],[0,0.75,0],[1,0.25,0],[1,0.5,0],[1,0.75,0]];outlineConnect=0;fontColor=#232F3E;gradientColor=#F78E04;gradientDirection=north;fillColor=#D05C17;strokeColor=#ffffff;dashed=0;verticalLabelPosition=bottom;verticalAlign=top;align=center;html=1;fontSize=12;fontStyle=0;aspect=fixed;shape=mxgraph.aws4.resourceIcon;resIcon=mxgraph.aws4.ec2;" parent="1" vertex="1">
          <mxGeometry x="280" y="1200" width="60" height="60" as="geometry" />
        </mxCell>
        <mxCell id="SSOGD9VV4sk8QEWSTlWP-74" value="&lt;b&gt;T&lt;br&gt;M&lt;br&gt;R&lt;br&gt;&lt;/b&gt;" style="text;html=1;strokeColor=none;fillColor=none;align=left;verticalAlign=middle;whiteSpace=wrap;rounded=0;fontSize=14;fontColor=#FF3333;" parent="1" vertex="1">
          <mxGeometry x="405" y="1190" width="245" height="30" as="geometry" />
        </mxCell>
        <mxCell id="SSOGD9VV4sk8QEWSTlWP-75" value="A customer wants to host its website developed in Java/DotNet on AWS. Customers want following thing from an Administrator:" style="text;html=1;strokeColor=none;fillColor=none;align=left;verticalAlign=middle;whiteSpace=wrap;rounded=0;fontSize=14;fontColor=#FF3333;fontStyle=1" parent="1" vertex="1">
          <mxGeometry x="5" y="1330" width="595" height="30" as="geometry" />
        </mxCell>
        <mxCell id="SSOGD9VV4sk8QEWSTlWP-76" value="&lt;ul&gt;&lt;li&gt;Deploy An EC2 Instance on AWS with following Specification&lt;/li&gt;&lt;ul&gt;&lt;li&gt;1 CPU and 2 GB Memory&lt;/li&gt;&lt;li&gt;Windows 2019 Enterprise Edition&amp;nbsp;&lt;/li&gt;&lt;li&gt;IIS webserver&lt;/li&gt;&lt;li&gt;&lt;b&gt;Additional Hard disk to store IIS Logs&lt;/b&gt;&lt;/li&gt;&lt;/ul&gt;&lt;li&gt;There should be an alert when CPU usaes go beyond 50% for 5 Min&amp;nbsp;&lt;/li&gt;&lt;li&gt;They should also wants to see Availability and Performance Dashboard&lt;/li&gt;&lt;/ul&gt;" style="text;html=1;strokeColor=none;fillColor=none;align=left;verticalAlign=middle;whiteSpace=wrap;rounded=0;fontSize=14;fontColor=#330033;" parent="1" vertex="1">
          <mxGeometry x="45" y="1430" width="555" height="30" as="geometry" />
        </mxCell>
        <mxCell id="SSOGD9VV4sk8QEWSTlWP-77" value="&lt;b&gt;East-US&lt;/b&gt;" style="points=[[0,0],[0.25,0],[0.5,0],[0.75,0],[1,0],[1,0.25],[1,0.5],[1,0.75],[1,1],[0.75,1],[0.5,1],[0.25,1],[0,1],[0,0.75],[0,0.5],[0,0.25]];outlineConnect=0;gradientColor=none;html=1;whiteSpace=wrap;fontSize=12;fontStyle=0;container=1;pointerEvents=0;collapsible=0;recursiveResize=0;shape=mxgraph.aws4.group;grIcon=mxgraph.aws4.group_region;strokeColor=#147EBA;fillColor=none;verticalAlign=top;align=left;spacingLeft=30;fontColor=#147EBA;dashed=1;" parent="1" vertex="1">
          <mxGeometry x="130" y="1570" width="400" height="210" as="geometry" />
        </mxCell>
        <mxCell id="SSOGD9VV4sk8QEWSTlWP-78" value="Zone-1" style="sketch=0;outlineConnect=0;gradientColor=none;html=1;whiteSpace=wrap;fontSize=12;fontStyle=0;shape=mxgraph.aws4.group;grIcon=mxgraph.aws4.group_availability_zone;strokeColor=#545B64;fillColor=none;verticalAlign=top;align=left;spacingLeft=30;fontColor=#545B64;dashed=1;" parent="SSOGD9VV4sk8QEWSTlWP-77" vertex="1">
          <mxGeometry x="55" y="40" width="275" height="130" as="geometry" />
        </mxCell>
        <mxCell id="SSOGD9VV4sk8QEWSTlWP-79" value="" style="sketch=0;points=[[0,0,0],[0.25,0,0],[0.5,0,0],[0.75,0,0],[1,0,0],[0,1,0],[0.25,1,0],[0.5,1,0],[0.75,1,0],[1,1,0],[0,0.25,0],[0,0.5,0],[0,0.75,0],[1,0.25,0],[1,0.5,0],[1,0.75,0]];outlineConnect=0;fontColor=#232F3E;gradientColor=#F78E04;gradientDirection=north;fillColor=#D05C17;strokeColor=#ffffff;dashed=0;verticalLabelPosition=bottom;verticalAlign=top;align=center;html=1;fontSize=12;fontStyle=0;aspect=fixed;shape=mxgraph.aws4.resourceIcon;resIcon=mxgraph.aws4.ec2;" parent="SSOGD9VV4sk8QEWSTlWP-77" vertex="1">
          <mxGeometry x="146.75" y="60" width="78" height="78" as="geometry" />
        </mxCell>
        <mxCell id="SSOGD9VV4sk8QEWSTlWP-81" value="" style="shape=image;html=1;verticalAlign=top;verticalLabelPosition=bottom;labelBackgroundColor=#ffffff;imageAspect=0;aspect=fixed;image=https://cdn1.iconfinder.com/data/icons/nuove/128x128/filesystems/www.png;fontSize=14;fontColor=#330033;" parent="SSOGD9VV4sk8QEWSTlWP-77" vertex="1">
          <mxGeometry x="200" y="75" width="48" height="48" as="geometry" />
        </mxCell>
        <mxCell id="SSOGD9VV4sk8QEWSTlWP-82" value="" style="sketch=0;aspect=fixed;pointerEvents=1;shadow=0;dashed=0;html=1;strokeColor=none;labelPosition=center;verticalLabelPosition=bottom;verticalAlign=top;align=center;fillColor=#00188D;shape=mxgraph.mscae.enterprise.code_file;fontSize=14;fontColor=#330033;" parent="SSOGD9VV4sk8QEWSTlWP-77" vertex="1">
          <mxGeometry x="302" y="130" width="28" height="28.57" as="geometry" />
        </mxCell>
        <mxCell id="SSOGD9VV4sk8QEWSTlWP-83" value="" style="aspect=fixed;html=1;points=[];align=center;image;fontSize=12;image=img/lib/azure2/general/Folder_Website.svg;fontColor=#330033;" parent="SSOGD9VV4sk8QEWSTlWP-77" vertex="1">
          <mxGeometry x="255.5" y="114.94000000000005" width="28" height="23.06" as="geometry" />
        </mxCell>
        <mxCell id="SSOGD9VV4sk8QEWSTlWP-87" value="SG&#xa;80/3389" style="fillColor=none;strokeColor=#DD3522;verticalAlign=top;fontStyle=0;fontColor=#DD3522;fontSize=14;" parent="SSOGD9VV4sk8QEWSTlWP-77" vertex="1">
          <mxGeometry x="80" y="78" width="50" height="60" as="geometry" />
        </mxCell>
        <mxCell id="SSOGD9VV4sk8QEWSTlWP-91" value="" style="outlineConnect=0;dashed=0;verticalLabelPosition=bottom;verticalAlign=top;align=center;html=1;shape=mxgraph.aws3.cloudwatch;fillColor=#759C3E;gradientColor=none;fontSize=14;fontColor=#330033;" parent="SSOGD9VV4sk8QEWSTlWP-77" vertex="1">
          <mxGeometry x="302" y="22" width="48" height="48" as="geometry" />
        </mxCell>
        <mxCell id="SSOGD9VV4sk8QEWSTlWP-84" value="" style="outlineConnect=0;dashed=0;verticalLabelPosition=bottom;verticalAlign=top;align=center;html=1;shape=mxgraph.aws3.internet_gateway;fillColor=#F58534;gradientColor=none;fontSize=14;fontColor=#330033;" parent="1" vertex="1">
          <mxGeometry x="100" y="1656" width="40" height="44" as="geometry" />
        </mxCell>
        <mxCell id="SSOGD9VV4sk8QEWSTlWP-85" value="" style="verticalLabelPosition=bottom;html=1;verticalAlign=top;align=center;strokeColor=none;fillColor=#00BEF2;shape=mxgraph.azure.user;fontSize=14;fontColor=#330033;" parent="1" vertex="1">
          <mxGeometry x="-70" y="1656" width="47.5" height="50" as="geometry" />
        </mxCell>
        <mxCell id="SSOGD9VV4sk8QEWSTlWP-86" value="" style="endArrow=classic;html=1;rounded=0;fontSize=14;fontColor=#330033;startArrow=none;" parent="1" source="SSOGD9VV4sk8QEWSTlWP-88" target="SSOGD9VV4sk8QEWSTlWP-84" edge="1">
          <mxGeometry width="50" height="50" relative="1" as="geometry">
            <mxPoint x="-20" y="1680" as="sourcePoint" />
            <mxPoint x="350" y="1560" as="targetPoint" />
          </mxGeometry>
        </mxCell>
        <mxCell id="SSOGD9VV4sk8QEWSTlWP-89" value="" style="endArrow=none;html=1;rounded=0;fontSize=14;fontColor=#330033;" parent="1" target="SSOGD9VV4sk8QEWSTlWP-88" edge="1">
          <mxGeometry width="50" height="50" relative="1" as="geometry">
            <mxPoint x="-20" y="1680" as="sourcePoint" />
            <mxPoint x="100" y="1678" as="targetPoint" />
          </mxGeometry>
        </mxCell>
        <mxCell id="SSOGD9VV4sk8QEWSTlWP-88" value="" style="sketch=0;points=[[0,0,0],[0.25,0,0],[0.5,0,0],[0.75,0,0],[1,0,0],[0,1,0],[0.25,1,0],[0.5,1,0],[0.75,1,0],[1,1,0],[0,0.25,0],[0,0.5,0],[0,0.75,0],[1,0.25,0],[1,0.5,0],[1,0.75,0]];outlineConnect=0;fontColor=#232F3E;gradientColor=#F54749;gradientDirection=north;fillColor=#C7131F;strokeColor=#ffffff;dashed=0;verticalLabelPosition=bottom;verticalAlign=top;align=center;html=1;fontSize=12;fontStyle=0;aspect=fixed;shape=mxgraph.aws4.resourceIcon;resIcon=mxgraph.aws4.firewall_manager;" parent="1" vertex="1">
          <mxGeometry x="45" y="1659" width="38" height="38" as="geometry" />
        </mxCell>
        <mxCell id="SSOGD9VV4sk8QEWSTlWP-90" value="Network ACL" style="text;html=1;strokeColor=none;fillColor=none;align=center;verticalAlign=middle;whiteSpace=wrap;rounded=0;fontSize=14;fontColor=#330033;fontStyle=1" parent="1" vertex="1">
          <mxGeometry x="34" y="1626" width="60" height="30" as="geometry" />
        </mxCell>
        <mxCell id="SSOGD9VV4sk8QEWSTlWP-92" value="" style="shadow=0;dashed=0;html=1;strokeColor=none;fillColor=#4495D1;labelPosition=center;verticalLabelPosition=bottom;verticalAlign=top;align=center;outlineConnect=0;shape=mxgraph.veeam.2d.alert;fontSize=14;fontColor=#330033;" parent="1" vertex="1">
          <mxGeometry x="548.4" y="1570" width="33.2" height="33.2" as="geometry" />
        </mxCell>
        <mxCell id="SSOGD9VV4sk8QEWSTlWP-93" value="" style="aspect=fixed;html=1;points=[];align=center;image;fontSize=12;image=img/lib/azure2/other/Azure_Monitor_Dashboard.svg;fontColor=#330033;" parent="1" vertex="1">
          <mxGeometry x="542" y="1620" width="68" height="63.2" as="geometry" />
        </mxCell>
        <mxCell id="SSOGD9VV4sk8QEWSTlWP-94" value="Cloud Account / Tenant" style="rounded=1;whiteSpace=wrap;html=1;fontSize=14;fontColor=#330033;" parent="1" vertex="1">
          <mxGeometry x="200" y="1880" width="240" height="40" as="geometry" />
        </mxCell>
        <mxCell id="SSOGD9VV4sk8QEWSTlWP-95" value="Org Account / Root" style="text;html=1;strokeColor=none;fillColor=none;align=center;verticalAlign=middle;whiteSpace=wrap;rounded=0;fontSize=14;fontColor=#330033;" parent="1" vertex="1">
          <mxGeometry x="440" y="1840" width="250" height="30" as="geometry" />
        </mxCell>
        <mxCell id="SSOGD9VV4sk8QEWSTlWP-96" value="Root Managment Group - Azure&lt;br&gt;Organization Root - AWS&lt;br&gt;Organization Root - GCP" style="text;html=1;strokeColor=none;fillColor=none;align=left;verticalAlign=middle;whiteSpace=wrap;rounded=0;fontSize=14;fontColor=#330033;" parent="1" vertex="1">
          <mxGeometry x="500" y="1885" width="260" height="30" as="geometry" />
        </mxCell>
        <mxCell id="SSOGD9VV4sk8QEWSTlWP-97" value="Consulting" style="rounded=0;whiteSpace=wrap;html=1;fontSize=14;fontColor=#330033;" parent="1" vertex="1">
          <mxGeometry x="30" y="1970" width="120" height="60" as="geometry" />
        </mxCell>
        <mxCell id="SSOGD9VV4sk8QEWSTlWP-98" value="Infra" style="rounded=0;whiteSpace=wrap;html=1;fontSize=14;fontColor=#330033;" parent="1" vertex="1">
          <mxGeometry x="205" y="1970" width="120" height="60" as="geometry" />
        </mxCell>
        <mxCell id="SSOGD9VV4sk8QEWSTlWP-99" value="Hardware" style="rounded=0;whiteSpace=wrap;html=1;fontSize=14;fontColor=#330033;" parent="1" vertex="1">
          <mxGeometry x="380" y="1970" width="120" height="60" as="geometry" />
        </mxCell>
        <mxCell id="SSOGD9VV4sk8QEWSTlWP-100" value="Org Unit - AWS&lt;br&gt;Project - GCP&amp;nbsp;&lt;br&gt;Managment Group - Azure&amp;nbsp;" style="text;html=1;strokeColor=none;fillColor=none;align=left;verticalAlign=middle;whiteSpace=wrap;rounded=0;fontSize=14;fontColor=#330033;" parent="1" vertex="1">
          <mxGeometry x="525" y="1985" width="240" height="30" as="geometry" />
        </mxCell>
        <mxCell id="SSOGD9VV4sk8QEWSTlWP-101" value="Domestic" style="ellipse;whiteSpace=wrap;html=1;aspect=fixed;fontSize=14;fontColor=#330033;" parent="1" vertex="1">
          <mxGeometry x="-55" y="2060" width="80" height="80" as="geometry" />
        </mxCell>
        <mxCell id="SSOGD9VV4sk8QEWSTlWP-102" value="International" style="ellipse;whiteSpace=wrap;html=1;aspect=fixed;fontSize=14;fontColor=#330033;" parent="1" vertex="1">
          <mxGeometry x="85" y="2060" width="80" height="80" as="geometry" />
        </mxCell>
        <mxCell id="SSOGD9VV4sk8QEWSTlWP-103" value="Subscription - Azure&lt;br&gt;Project - GCP&amp;nbsp;&lt;br&gt;Account - AWS" style="text;html=1;strokeColor=none;fillColor=none;align=left;verticalAlign=middle;whiteSpace=wrap;rounded=0;fontSize=14;fontColor=#330033;" parent="1" vertex="1">
          <mxGeometry x="525" y="2060" width="240" height="30" as="geometry" />
        </mxCell>
        <mxCell id="SSOGD9VV4sk8QEWSTlWP-104" value="SMB" style="ellipse;whiteSpace=wrap;html=1;aspect=fixed;fontSize=14;fontColor=#330033;" parent="1" vertex="1">
          <mxGeometry x="-130" y="2170" width="50" height="50" as="geometry" />
        </mxCell>
        <mxCell id="SSOGD9VV4sk8QEWSTlWP-105" value="ENT" style="ellipse;whiteSpace=wrap;html=1;aspect=fixed;fontSize=14;fontColor=#330033;" parent="1" vertex="1">
          <mxGeometry x="-10" y="2180" width="50" height="50" as="geometry" />
        </mxCell>
        <mxCell id="SSOGD9VV4sk8QEWSTlWP-106" value="Resource Group" style="text;html=1;strokeColor=none;fillColor=none;align=left;verticalAlign=middle;whiteSpace=wrap;rounded=0;fontSize=14;fontColor=#330033;" parent="1" vertex="1">
          <mxGeometry x="520" y="2170" width="240" height="30" as="geometry" />
        </mxCell>
        <mxCell id="SSOGD9VV4sk8QEWSTlWP-107" value="Resources" style="text;html=1;strokeColor=none;fillColor=none;align=center;verticalAlign=middle;whiteSpace=wrap;rounded=0;fontSize=14;fontColor=#330033;" parent="1" vertex="1">
          <mxGeometry x="-10" y="2280" width="60" height="30" as="geometry" />
        </mxCell>
        <mxCell id="gn4h22Pv78Su0KAkNXE8-1" value="" style="rounded=0;whiteSpace=wrap;html=1;" parent="1" vertex="1">
          <mxGeometry x="-230" y="2370" width="190" height="250" as="geometry" />
        </mxCell>
        <mxCell id="gn4h22Pv78Su0KAkNXE8-2" value="" style="image;points=[];aspect=fixed;html=1;align=center;shadow=0;dashed=0;image=img/lib/allied_telesis/storage/Datacenter_Server_Rack_Storage_Unit_Small.svg;" parent="1" vertex="1">
          <mxGeometry x="390" y="2390" width="172.77" height="150" as="geometry" />
        </mxCell>
        <mxCell id="gn4h22Pv78Su0KAkNXE8-3" value="" style="verticalLabelPosition=bottom;verticalAlign=top;html=1;shadow=0;dashed=0;strokeWidth=1;shape=mxgraph.android.switch_off;fillColor=#666666;sketch=0;" parent="1" vertex="1">
          <mxGeometry x="102.5" y="2460" width="165" height="40" as="geometry" />
        </mxCell>
        <mxCell id="gn4h22Pv78Su0KAkNXE8-4" value="" style="verticalLabelPosition=bottom;html=1;verticalAlign=top;align=center;strokeColor=none;fillColor=#00BEF2;shape=mxgraph.azure.virtual_machine;" parent="1" vertex="1">
          <mxGeometry x="-180" y="2390" width="90" height="60" as="geometry" />
        </mxCell>
        <mxCell id="gn4h22Pv78Su0KAkNXE8-5" value="" style="endArrow=none;html=1;rounded=0;exitX=0.622;exitY=0.583;exitDx=0;exitDy=0;exitPerimeter=0;entryX=1;entryY=0.5;entryDx=0;entryDy=0;" parent="1" source="gn4h22Pv78Su0KAkNXE8-4" target="gn4h22Pv78Su0KAkNXE8-1" edge="1">
          <mxGeometry width="50" height="50" relative="1" as="geometry">
            <mxPoint x="120" y="2740" as="sourcePoint" />
            <mxPoint x="170" y="2690" as="targetPoint" />
          </mxGeometry>
        </mxCell>
        <mxCell id="gn4h22Pv78Su0KAkNXE8-6" value="" style="ellipse;whiteSpace=wrap;html=1;aspect=fixed;" parent="1" vertex="1">
          <mxGeometry x="-60" y="2450" width="30" height="30" as="geometry" />
        </mxCell>
        <mxCell id="gn4h22Pv78Su0KAkNXE8-7" value="" style="ellipse;whiteSpace=wrap;html=1;aspect=fixed;" parent="1" vertex="1">
          <mxGeometry x="-60" y="2490" width="30" height="30" as="geometry" />
        </mxCell>
        <mxCell id="gn4h22Pv78Su0KAkNXE8-8" value="" style="endArrow=none;dashed=1;html=1;dashPattern=1 3;strokeWidth=2;rounded=0;exitX=1;exitY=0.5;exitDx=0;exitDy=0;" parent="1" source="gn4h22Pv78Su0KAkNXE8-6" edge="1">
          <mxGeometry width="50" height="50" relative="1" as="geometry">
            <mxPoint x="120" y="2740" as="sourcePoint" />
            <mxPoint x="100" y="2470" as="targetPoint" />
          </mxGeometry>
        </mxCell>
        <mxCell id="gn4h22Pv78Su0KAkNXE8-9" value="" style="endArrow=none;dashed=1;html=1;dashPattern=1 3;strokeWidth=2;rounded=0;exitX=1;exitY=0.5;exitDx=0;exitDy=0;entryX=0.006;entryY=0.567;entryDx=0;entryDy=0;entryPerimeter=0;" parent="1" target="gn4h22Pv78Su0KAkNXE8-2" edge="1">
          <mxGeometry width="50" height="50" relative="1" as="geometry">
            <mxPoint x="272.5" y="2475" as="sourcePoint" />
            <mxPoint x="402.5" y="2480" as="targetPoint" />
          </mxGeometry>
        </mxCell>
        <mxCell id="gn4h22Pv78Su0KAkNXE8-10" value="" style="verticalLabelPosition=bottom;html=1;verticalAlign=top;align=center;strokeColor=none;fillColor=#00BEF2;shape=mxgraph.azure.virtual_machine;" parent="1" vertex="1">
          <mxGeometry x="-180" y="2540" width="90" height="60" as="geometry" />
        </mxCell>
        <mxCell id="gn4h22Pv78Su0KAkNXE8-11" value="" style="verticalLabelPosition=bottom;html=1;verticalAlign=top;align=center;strokeColor=none;fillColor=#00BEF2;shape=mxgraph.azure.virtual_machine;" parent="1" vertex="1">
          <mxGeometry x="-180" y="2470" width="90" height="60" as="geometry" />
        </mxCell>
        <mxCell id="gn4h22Pv78Su0KAkNXE8-12" value="" style="verticalLabelPosition=bottom;verticalAlign=top;html=1;shadow=0;dashed=0;strokeWidth=1;shape=mxgraph.android.switch_off;fillColor=#666666;sketch=0;" parent="1" vertex="1">
          <mxGeometry x="100" y="2520" width="165" height="40" as="geometry" />
        </mxCell>
        <mxCell id="gn4h22Pv78Su0KAkNXE8-13" value="" style="endArrow=none;html=1;rounded=0;exitX=0.622;exitY=0.583;exitDx=0;exitDy=0;exitPerimeter=0;entryX=-0.012;entryY=0.45;entryDx=0;entryDy=0;entryPerimeter=0;" parent="1" target="gn4h22Pv78Su0KAkNXE8-12" edge="1">
          <mxGeometry width="50" height="50" relative="1" as="geometry">
            <mxPoint x="-30" y="2505" as="sourcePoint" />
            <mxPoint x="64" y="2575" as="targetPoint" />
          </mxGeometry>
        </mxCell>
        <mxCell id="gn4h22Pv78Su0KAkNXE8-14" value="" style="endArrow=none;html=1;rounded=0;exitX=0.622;exitY=0.583;exitDx=0;exitDy=0;exitPerimeter=0;" parent="1" target="gn4h22Pv78Su0KAkNXE8-2" edge="1">
          <mxGeometry width="50" height="50" relative="1" as="geometry">
            <mxPoint x="262" y="2540" as="sourcePoint" />
            <mxPoint x="390" y="2573" as="targetPoint" />
          </mxGeometry>
        </mxCell>
        <mxCell id="gn4h22Pv78Su0KAkNXE8-15" value="500 GB - 10 $&lt;br&gt;500 Gb - 25 $" style="text;html=1;strokeColor=none;fillColor=none;align=left;verticalAlign=middle;whiteSpace=wrap;rounded=0;fontStyle=1;fontSize=19;" parent="1" vertex="1">
          <mxGeometry x="50" y="2640" width="190" height="30" as="geometry" />
        </mxCell>
        <mxCell id="gn4h22Pv78Su0KAkNXE8-16" value="&lt;font style=&quot;font-size: 15px;&quot;&gt;Storage Optimized&amp;nbsp;&lt;br&gt;Network Optimized&lt;br&gt;Memorry Optimized&amp;nbsp;&lt;br&gt;&lt;/font&gt;" style="text;html=1;strokeColor=none;fillColor=none;align=left;verticalAlign=middle;whiteSpace=wrap;rounded=0;fontStyle=1" parent="1" vertex="1">
          <mxGeometry x="414" y="2610" width="256" height="30" as="geometry" />
        </mxCell>
        <mxCell id="gn4h22Pv78Su0KAkNXE8-17" value="" style="rounded=0;whiteSpace=wrap;html=1;" parent="1" vertex="1">
          <mxGeometry x="-230" y="2730" width="190" height="250" as="geometry" />
        </mxCell>
        <mxCell id="gn4h22Pv78Su0KAkNXE8-18" value="" style="verticalLabelPosition=bottom;html=1;verticalAlign=top;align=center;strokeColor=none;fillColor=#00BEF2;shape=mxgraph.azure.virtual_machine;" parent="1" vertex="1">
          <mxGeometry x="-180" y="2770" width="90" height="60" as="geometry" />
        </mxCell>
        <mxCell id="gn4h22Pv78Su0KAkNXE8-19" value="" style="endArrow=none;html=1;rounded=0;exitX=0.99;exitY=0.99;exitDx=0;exitDy=0;exitPerimeter=0;entryX=-0.059;entryY=0.59;entryDx=0;entryDy=0;entryPerimeter=0;" parent="1" source="gn4h22Pv78Su0KAkNXE8-18" target="gn4h22Pv78Su0KAkNXE8-20" edge="1">
          <mxGeometry width="50" height="50" relative="1" as="geometry">
            <mxPoint x="120" y="2740" as="sourcePoint" />
            <mxPoint y="2829" as="targetPoint" />
          </mxGeometry>
        </mxCell>
        <mxCell id="gn4h22Pv78Su0KAkNXE8-20" value="" style="verticalLabelPosition=bottom;sketch=0;aspect=fixed;html=1;verticalAlign=top;strokeColor=none;align=center;outlineConnect=0;shape=mxgraph.citrix.dhcp_server;" parent="1" vertex="1">
          <mxGeometry x="85" y="2770" width="84.44" height="100" as="geometry" />
        </mxCell>
        <mxCell id="gn4h22Pv78Su0KAkNXE8-21" value="10.0.0.1" style="text;html=1;strokeColor=none;fillColor=none;align=center;verticalAlign=middle;whiteSpace=wrap;rounded=0;" parent="1" vertex="1">
          <mxGeometry x="-45" y="2800" width="60" height="30" as="geometry" />
        </mxCell>
        <mxCell id="gn4h22Pv78Su0KAkNXE8-22" value="MAC address -- Private IP" style="text;html=1;strokeColor=none;fillColor=none;align=center;verticalAlign=middle;whiteSpace=wrap;rounded=0;" parent="1" vertex="1">
          <mxGeometry x="240" y="2760" width="210" height="30" as="geometry" />
        </mxCell>
        <mxCell id="gn4h22Pv78Su0KAkNXE8-23" value="" style="shape=image;html=1;verticalAlign=top;verticalLabelPosition=bottom;labelBackgroundColor=#ffffff;imageAspect=0;aspect=fixed;image=https://cdn1.iconfinder.com/data/icons/computer-hardware-hand-drawn-vol-2/52/lan__computing__lancard__network__soundcard__smartcard__contact-128.png" parent="1" vertex="1">
          <mxGeometry x="-110" y="2825" width="60" height="60" as="geometry" />
        </mxCell>
        <mxCell id="gn4h22Pv78Su0KAkNXE8-24" value="" style="rounded=1;whiteSpace=wrap;html=1;" parent="1" vertex="1">
          <mxGeometry x="-330" y="2750" width="80" height="30" as="geometry" />
        </mxCell>
        <mxCell id="gn4h22Pv78Su0KAkNXE8-25" value="Data Storage Service" style="rounded=0;whiteSpace=wrap;html=1;fontStyle=1;fontSize=15;fillColor=#dae8fc;strokeColor=#6c8ebf;" parent="1" vertex="1">
          <mxGeometry x="-5" y="3080" width="270" height="60" as="geometry" />
        </mxCell>
        <mxCell id="gn4h22Pv78Su0KAkNXE8-26" value="Data&amp;nbsp;" style="rounded=0;whiteSpace=wrap;html=1;fontStyle=1;fillColor=#fff2cc;strokeColor=#d6b656;" parent="1" vertex="1">
          <mxGeometry x="-180" y="3200" width="130" height="30" as="geometry" />
        </mxCell>
        <mxCell id="gn4h22Pv78Su0KAkNXE8-27" value="Message" style="rounded=0;whiteSpace=wrap;html=1;fontStyle=1;fillColor=#fff2cc;strokeColor=#d6b656;" parent="1" vertex="1">
          <mxGeometry x="462.5" y="3200" width="130" height="30" as="geometry" />
        </mxCell>
        <mxCell id="gn4h22Pv78Su0KAkNXE8-28" value="Unstructured&amp;nbsp;" style="rounded=0;whiteSpace=wrap;html=1;fontStyle=1;fillColor=#f8cecc;strokeColor=#b85450;" parent="1" vertex="1">
          <mxGeometry x="-400" y="3280" width="120" height="30" as="geometry" />
        </mxCell>
        <mxCell id="gn4h22Pv78Su0KAkNXE8-29" value="Structured&amp;nbsp;" style="rounded=0;whiteSpace=wrap;html=1;fontStyle=1;fillColor=#f8cecc;strokeColor=#b85450;" parent="1" vertex="1">
          <mxGeometry x="130" y="3280" width="120" height="30" as="geometry" />
        </mxCell>
        <mxCell id="gn4h22Pv78Su0KAkNXE8-30" value="File Type&lt;br&gt;File Size&amp;nbsp;" style="text;html=1;strokeColor=none;fillColor=none;align=center;verticalAlign=middle;whiteSpace=wrap;rounded=0;" parent="1" vertex="1">
          <mxGeometry x="-510" y="3250" width="60" height="30" as="geometry" />
        </mxCell>
        <mxCell id="gn4h22Pv78Su0KAkNXE8-31" value="User Generated Data" style="text;html=1;strokeColor=#d6b656;fillColor=#fff2cc;align=center;verticalAlign=middle;whiteSpace=wrap;rounded=0;fontStyle=1;fontSize=15;" parent="1" vertex="1">
          <mxGeometry x="-520" y="3330" width="130" height="30" as="geometry" />
        </mxCell>
        <mxCell id="gn4h22Pv78Su0KAkNXE8-32" value="RDBMS" style="text;html=1;strokeColor=#d6b656;fillColor=#fff2cc;align=center;verticalAlign=middle;whiteSpace=wrap;rounded=0;fontStyle=1;fontSize=15;" parent="1" vertex="1">
          <mxGeometry x="35" y="3330" width="130" height="30" as="geometry" />
        </mxCell>
        <mxCell id="gn4h22Pv78Su0KAkNXE8-33" value="App Generated Data" style="text;html=1;strokeColor=#d6b656;fillColor=#fff2cc;align=center;verticalAlign=middle;whiteSpace=wrap;rounded=0;fontStyle=1;fontSize=15;" parent="1" vertex="1">
          <mxGeometry x="-260" y="3330" width="130" height="30" as="geometry" />
        </mxCell>
        <mxCell id="gn4h22Pv78Su0KAkNXE8-34" value="" style="shape=image;html=1;verticalAlign=top;verticalLabelPosition=bottom;labelBackgroundColor=#ffffff;imageAspect=0;aspect=fixed;image=https://cdn2.iconfinder.com/data/icons/crystalproject/128x128/devices/hdd_unmount.png" parent="1" vertex="1">
          <mxGeometry x="-533" y="3371" width="48" height="48" as="geometry" />
        </mxCell>
        <mxCell id="gn4h22Pv78Su0KAkNXE8-35" value="EBS/Volume" style="text;html=1;strokeColor=none;fillColor=none;align=center;verticalAlign=middle;whiteSpace=wrap;rounded=0;fontStyle=1;fontColor=#FF0000;" parent="1" vertex="1">
          <mxGeometry x="-473" y="3380" width="60" height="30" as="geometry" />
        </mxCell>
        <mxCell id="gn4h22Pv78Su0KAkNXE8-36" value="" style="shape=image;html=1;verticalAlign=top;verticalLabelPosition=bottom;labelBackgroundColor=#ffffff;imageAspect=0;aspect=fixed;image=https://cdn1.iconfinder.com/data/icons/CrystalClear/64x64/apps/fileshare.png" parent="1" vertex="1">
          <mxGeometry x="-533" y="3430" width="50" height="50" as="geometry" />
        </mxCell>
        <mxCell id="gn4h22Pv78Su0KAkNXE8-37" value="EFS/GFS" style="text;html=1;strokeColor=none;fillColor=none;align=center;verticalAlign=middle;whiteSpace=wrap;rounded=0;fontStyle=1;fontColor=#FF0000;" parent="1" vertex="1">
          <mxGeometry x="-485" y="3430" width="60" height="30" as="geometry" />
        </mxCell>
        <mxCell id="gn4h22Pv78Su0KAkNXE8-38" value="" style="sketch=0;outlineConnect=0;fontColor=#232F3E;gradientColor=none;fillColor=#3F8624;strokeColor=none;dashed=0;verticalLabelPosition=bottom;verticalAlign=top;align=center;html=1;fontSize=12;fontStyle=0;aspect=fixed;pointerEvents=1;shape=mxgraph.aws4.bucket;" parent="1" vertex="1">
          <mxGeometry x="-280" y="3375" width="38.46" height="40" as="geometry" />
        </mxCell>
        <mxCell id="gn4h22Pv78Su0KAkNXE8-39" value="S3/GCS" style="text;html=1;strokeColor=none;fillColor=none;align=center;verticalAlign=middle;whiteSpace=wrap;rounded=0;fontStyle=1;fontColor=#FF0000;" parent="1" vertex="1">
          <mxGeometry x="-230" y="3380" width="60" height="30" as="geometry" />
        </mxCell>
        <mxCell id="gn4h22Pv78Su0KAkNXE8-40" value="" style="sketch=0;outlineConnect=0;fontColor=#232F3E;gradientColor=none;fillColor=#4D27AA;strokeColor=none;dashed=0;verticalLabelPosition=bottom;verticalAlign=top;align=center;html=1;fontSize=12;fontStyle=0;aspect=fixed;pointerEvents=1;shape=mxgraph.aws4.data_lake_resource_icon;" parent="1" vertex="1">
          <mxGeometry x="-280" y="3430" width="50" height="50" as="geometry" />
        </mxCell>
        <mxCell id="gn4h22Pv78Su0KAkNXE8-41" value="Data Lake" style="text;html=1;strokeColor=none;fillColor=none;align=center;verticalAlign=middle;whiteSpace=wrap;rounded=0;fontStyle=1;fontColor=#FF0000;" parent="1" vertex="1">
          <mxGeometry x="-225" y="3440" width="60" height="30" as="geometry" />
        </mxCell>
        <mxCell id="gn4h22Pv78Su0KAkNXE8-42" value="" style="endArrow=none;html=1;rounded=0;exitX=1;exitY=0;exitDx=0;exitDy=0;entryX=0;entryY=0;entryDx=0;entryDy=0;" parent="1" source="gn4h22Pv78Su0KAkNXE8-28" target="gn4h22Pv78Su0KAkNXE8-29" edge="1">
          <mxGeometry width="50" height="50" relative="1" as="geometry">
            <mxPoint x="120" y="3470" as="sourcePoint" />
            <mxPoint x="170" y="3420" as="targetPoint" />
            <Array as="points">
              <mxPoint x="-180" y="3230" />
            </Array>
          </mxGeometry>
        </mxCell>
        <mxCell id="gn4h22Pv78Su0KAkNXE8-44" value="No_SQL" style="text;html=1;strokeColor=#d6b656;fillColor=#fff2cc;align=center;verticalAlign=middle;whiteSpace=wrap;rounded=0;fontStyle=1;fontSize=15;" parent="1" vertex="1">
          <mxGeometry x="255" y="3330" width="130" height="30" as="geometry" />
        </mxCell>
        <mxCell id="gn4h22Pv78Su0KAkNXE8-45" value="" style="outlineConnect=0;dashed=0;verticalLabelPosition=bottom;verticalAlign=top;align=center;html=1;shape=mxgraph.aws3.rds;fillColor=#2E73B8;gradientColor=none;" parent="1" vertex="1">
          <mxGeometry x="-36.25" y="3401" width="36.25" height="49" as="geometry" />
        </mxCell>
        <mxCell id="gn4h22Pv78Su0KAkNXE8-46" value="RDBMS/Cloud SQL" style="text;html=1;strokeColor=none;fillColor=none;align=center;verticalAlign=middle;whiteSpace=wrap;rounded=0;fontStyle=1;fontColor=#FF0000;" parent="1" vertex="1">
          <mxGeometry x="2.5" y="3410" width="100" height="30" as="geometry" />
        </mxCell>
        <mxCell id="gn4h22Pv78Su0KAkNXE8-47" value="OLTP" style="text;html=1;strokeColor=#666666;fillColor=#f5f5f5;align=center;verticalAlign=middle;whiteSpace=wrap;rounded=0;fontStyle=1;fontColor=#333333;" parent="1" vertex="1">
          <mxGeometry x="-45" y="3370" width="60" height="30" as="geometry" />
        </mxCell>
        <mxCell id="gn4h22Pv78Su0KAkNXE8-48" value="OLAP" style="text;html=1;strokeColor=#666666;fillColor=#f5f5f5;align=center;verticalAlign=middle;whiteSpace=wrap;rounded=0;fontStyle=1;fontColor=#333333;" parent="1" vertex="1">
          <mxGeometry x="105" y="3370" width="60" height="30" as="geometry" />
        </mxCell>
        <mxCell id="gn4h22Pv78Su0KAkNXE8-49" value="" style="outlineConnect=0;dashed=0;verticalLabelPosition=bottom;verticalAlign=top;align=center;html=1;shape=mxgraph.aws3.redshift;fillColor=#2E73B8;gradientColor=none;" parent="1" vertex="1">
          <mxGeometry x="101.25" y="3405" width="47.5" height="55" as="geometry" />
        </mxCell>
        <mxCell id="gn4h22Pv78Su0KAkNXE8-50" value="Redshift" style="text;html=1;strokeColor=none;fillColor=none;align=center;verticalAlign=middle;whiteSpace=wrap;rounded=0;fontStyle=1;fontColor=#FF0000;" parent="1" vertex="1">
          <mxGeometry x="150" y="3415" width="100" height="30" as="geometry" />
        </mxCell>
        <mxCell id="gn4h22Pv78Su0KAkNXE8-51" value="" style="sketch=0;points=[[0,0,0],[0.25,0,0],[0.5,0,0],[0.75,0,0],[1,0,0],[0,1,0],[0.25,1,0],[0.5,1,0],[0.75,1,0],[1,1,0],[0,0.25,0],[0,0.5,0],[0,0.75,0],[1,0.25,0],[1,0.5,0],[1,0.75,0]];outlineConnect=0;fontColor=#232F3E;gradientColor=#4D72F3;gradientDirection=north;fillColor=#3334B9;strokeColor=#ffffff;dashed=0;verticalLabelPosition=bottom;verticalAlign=top;align=center;html=1;fontSize=12;fontStyle=0;aspect=fixed;shape=mxgraph.aws4.resourceIcon;resIcon=mxgraph.aws4.dynamodb;" parent="1" vertex="1">
          <mxGeometry x="266.5" y="3386.5" width="43.5" height="43.5" as="geometry" />
        </mxCell>
        <mxCell id="gn4h22Pv78Su0KAkNXE8-52" value="DynamoDB/&lt;br&gt;Document DB" style="text;html=1;strokeColor=none;fillColor=none;align=center;verticalAlign=middle;whiteSpace=wrap;rounded=0;fontStyle=1;fontColor=#FF0000;" parent="1" vertex="1">
          <mxGeometry x="310" y="3393.25" width="100" height="30" as="geometry" />
        </mxCell>
        <mxCell id="gn4h22Pv78Su0KAkNXE8-53" value="" style="endArrow=classic;html=1;rounded=0;" parent="1" edge="1">
          <mxGeometry width="50" height="50" relative="1" as="geometry">
            <mxPoint x="-260" y="3300" as="sourcePoint" />
            <mxPoint x="-70" y="3300" as="targetPoint" />
          </mxGeometry>
        </mxCell>
        <mxCell id="gn4h22Pv78Su0KAkNXE8-54" value="Streaming" style="text;html=1;strokeColor=#666666;fillColor=#f5f5f5;align=center;verticalAlign=middle;whiteSpace=wrap;rounded=0;fontStyle=1;fontColor=#333333;" parent="1" vertex="1">
          <mxGeometry x="400" y="3250" width="60" height="30" as="geometry" />
        </mxCell>
        <mxCell id="gn4h22Pv78Su0KAkNXE8-55" value="Event" style="text;html=1;strokeColor=#666666;fillColor=#f5f5f5;align=center;verticalAlign=middle;whiteSpace=wrap;rounded=0;fontStyle=1;fontColor=#333333;" parent="1" vertex="1">
          <mxGeometry x="595" y="3250" width="60" height="30" as="geometry" />
        </mxCell>
        <mxCell id="gn4h22Pv78Su0KAkNXE8-56" value="" style="outlineConnect=0;dashed=0;verticalLabelPosition=bottom;verticalAlign=top;align=center;html=1;shape=mxgraph.aws3.kinesis;fillColor=#F58534;gradientColor=none;" parent="1" vertex="1">
          <mxGeometry x="406.25" y="3289" width="33.75" height="41" as="geometry" />
        </mxCell>
        <mxCell id="gn4h22Pv78Su0KAkNXE8-57" value="Kinesis/streaming" style="text;html=1;strokeColor=none;fillColor=none;align=center;verticalAlign=middle;whiteSpace=wrap;rounded=0;fontStyle=1;fontColor=#FF0000;" parent="1" vertex="1">
          <mxGeometry x="450" y="3289" width="100" height="30" as="geometry" />
        </mxCell>
        <mxCell id="gn4h22Pv78Su0KAkNXE8-58" value="" style="outlineConnect=0;dashed=0;verticalLabelPosition=bottom;verticalAlign=top;align=center;html=1;shape=mxgraph.aws3.sqs;fillColor=#D9A741;gradientColor=none;" parent="1" vertex="1">
          <mxGeometry x="581.6" y="3289" width="48.4" height="51" as="geometry" />
        </mxCell>
        <mxCell id="gn4h22Pv78Su0KAkNXE8-59" value="SQS/Pub-Sub" style="text;html=1;strokeColor=none;fillColor=none;align=center;verticalAlign=middle;whiteSpace=wrap;rounded=0;fontStyle=1;fontColor=#FF0000;" parent="1" vertex="1">
          <mxGeometry x="640" y="3294.5" width="100" height="30" as="geometry" />
        </mxCell>
        <mxCell id="gn4h22Pv78Su0KAkNXE8-60" value="" style="endArrow=none;dashed=1;html=1;dashPattern=1 3;strokeWidth=2;rounded=0;entryX=0;entryY=1;entryDx=0;entryDy=0;exitX=0.5;exitY=0;exitDx=0;exitDy=0;" parent="1" source="gn4h22Pv78Su0KAkNXE8-26" target="gn4h22Pv78Su0KAkNXE8-25" edge="1">
          <mxGeometry width="50" height="50" relative="1" as="geometry">
            <mxPoint x="120" y="3470" as="sourcePoint" />
            <mxPoint x="170" y="3420" as="targetPoint" />
          </mxGeometry>
        </mxCell>
        <mxCell id="gn4h22Pv78Su0KAkNXE8-61" value="" style="endArrow=none;dashed=1;html=1;dashPattern=1 3;strokeWidth=2;rounded=0;entryX=0;entryY=1;entryDx=0;entryDy=0;exitX=0.412;exitY=-0.167;exitDx=0;exitDy=0;exitPerimeter=0;" parent="1" source="gn4h22Pv78Su0KAkNXE8-27" edge="1">
          <mxGeometry width="50" height="50" relative="1" as="geometry">
            <mxPoint x="155" y="3200" as="sourcePoint" />
            <mxPoint x="265" y="3140" as="targetPoint" />
          </mxGeometry>
        </mxCell>
        <mxCell id="gn4h22Pv78Su0KAkNXE8-62" value="Application Deployment Architecure" style="rounded=1;whiteSpace=wrap;html=1;fontStyle=1;fontSize=16;" parent="1" vertex="1">
          <mxGeometry x="-30" y="3507" width="290" height="60" as="geometry" />
        </mxCell>
        <mxCell id="gn4h22Pv78Su0KAkNXE8-63" value="" style="image;aspect=fixed;perimeter=ellipsePerimeter;html=1;align=center;shadow=0;dashed=0;spacingTop=3;image=img/lib/active_directory/generic_server.svg;" parent="1" vertex="1">
          <mxGeometry x="-319.94000000000005" y="3680" width="78.4" height="140" as="geometry" />
        </mxCell>
        <mxCell id="gn4h22Pv78Su0KAkNXE8-64" value="" style="sketch=0;outlineConnect=0;fontColor=#232F3E;gradientColor=none;fillColor=#4D27AA;strokeColor=none;dashed=0;verticalLabelPosition=bottom;verticalAlign=top;align=center;html=1;fontSize=12;fontStyle=0;aspect=fixed;pointerEvents=1;shape=mxgraph.aws4.data_exchange_for_apis;" parent="1" vertex="1">
          <mxGeometry x="-303" y="3590" width="78" height="78" as="geometry" />
        </mxCell>
        <mxCell id="gn4h22Pv78Su0KAkNXE8-65" value="Single Application develop in single code like Java&amp;nbsp;&amp;nbsp;" style="text;html=1;strokeColor=none;fillColor=none;align=center;verticalAlign=middle;whiteSpace=wrap;rounded=0;fontStyle=1;fontSize=16;" parent="1" vertex="1">
          <mxGeometry x="-185" y="3600" width="510" height="30" as="geometry" />
        </mxCell>
        <mxCell id="gn4h22Pv78Su0KAkNXE8-66" value="Single Deployment Package need to be created - Jar /War/Zip" style="text;html=1;strokeColor=none;fillColor=none;align=center;verticalAlign=middle;whiteSpace=wrap;rounded=0;fontStyle=1;fontSize=16;" parent="1" vertex="1">
          <mxGeometry x="-185" y="3638" width="510" height="30" as="geometry" />
        </mxCell>
        <mxCell id="gn4h22Pv78Su0KAkNXE8-67" value="Monolathic" style="rounded=1;whiteSpace=wrap;html=1;fontStyle=1;fontSize=16;" parent="1" vertex="1">
          <mxGeometry x="-40" y="3700" width="120" height="60" as="geometry" />
        </mxCell>
        <mxCell id="gn4h22Pv78Su0KAkNXE8-68" value="" style="image;aspect=fixed;perimeter=ellipsePerimeter;html=1;align=center;shadow=0;dashed=0;spacingTop=3;image=img/lib/active_directory/generic_server.svg;" parent="1" vertex="1">
          <mxGeometry x="-328.4" y="3880" width="117.6" height="210" as="geometry" />
        </mxCell>
        <mxCell id="gn4h22Pv78Su0KAkNXE8-69" value="" style="verticalLabelPosition=bottom;html=1;verticalAlign=top;align=center;strokeColor=none;fillColor=#00BEF2;shape=mxgraph.azure.virtual_machine;" parent="1" vertex="1">
          <mxGeometry x="-241.54000000000002" y="3920" width="50" height="40" as="geometry" />
        </mxCell>
        <mxCell id="gn4h22Pv78Su0KAkNXE8-70" value="" style="verticalLabelPosition=bottom;html=1;verticalAlign=top;align=center;strokeColor=none;fillColor=#00BEF2;shape=mxgraph.azure.virtual_machine;" parent="1" vertex="1">
          <mxGeometry x="-241.54000000000002" y="3980" width="50" height="40" as="geometry" />
        </mxCell>
        <mxCell id="gn4h22Pv78Su0KAkNXE8-71" value="" style="verticalLabelPosition=bottom;html=1;verticalAlign=top;align=center;strokeColor=none;fillColor=#00BEF2;shape=mxgraph.azure.virtual_machine;" parent="1" vertex="1">
          <mxGeometry x="-241.54000000000002" y="4030" width="50" height="40" as="geometry" />
        </mxCell>
        <mxCell id="gn4h22Pv78Su0KAkNXE8-72" value="Multiple Samll&amp;nbsp; Application develop&amp;nbsp;&lt;br&gt;Each App Can use Different Code&lt;br&gt;2 Tire / 3 Tire Architecture&amp;nbsp;" style="text;html=1;strokeColor=none;fillColor=none;align=center;verticalAlign=middle;whiteSpace=wrap;rounded=0;fontStyle=1;fontSize=16;" parent="1" vertex="1">
          <mxGeometry x="-265" y="3900" width="770" height="30" as="geometry" />
        </mxCell>
        <mxCell id="gn4h22Pv78Su0KAkNXE8-73" value="Multiple Deployment Package need to be created - Jar /War/Zip" style="text;html=1;strokeColor=none;fillColor=none;align=center;verticalAlign=middle;whiteSpace=wrap;rounded=0;fontStyle=1;fontSize=16;" parent="1" vertex="1">
          <mxGeometry x="-65" y="3960" width="510" height="30" as="geometry" />
        </mxCell>
        <mxCell id="gn4h22Pv78Su0KAkNXE8-74" value="N-Tire" style="rounded=1;whiteSpace=wrap;html=1;fontStyle=1;fontSize=16;" parent="1" vertex="1">
          <mxGeometry x="370" y="3860" width="120" height="60" as="geometry" />
        </mxCell>
        <mxCell id="gn4h22Pv78Su0KAkNXE8-75" value="" style="image;aspect=fixed;perimeter=ellipsePerimeter;html=1;align=center;shadow=0;dashed=0;spacingTop=3;image=img/lib/active_directory/generic_server.svg;" parent="1" vertex="1">
          <mxGeometry x="-319.94" y="4130" width="117.6" height="210" as="geometry" />
        </mxCell>
        <mxCell id="gn4h22Pv78Su0KAkNXE8-76" value="" style="verticalLabelPosition=bottom;html=1;verticalAlign=top;align=center;strokeColor=none;fillColor=#00BEF2;shape=mxgraph.azure.virtual_machine;" parent="1" vertex="1">
          <mxGeometry x="-233.08" y="4170" width="50" height="40" as="geometry" />
        </mxCell>
        <mxCell id="gn4h22Pv78Su0KAkNXE8-77" value="" style="verticalLabelPosition=bottom;html=1;verticalAlign=top;align=center;strokeColor=none;fillColor=#00BEF2;shape=mxgraph.azure.virtual_machine;" parent="1" vertex="1">
          <mxGeometry x="-233.08" y="4230" width="50" height="40" as="geometry" />
        </mxCell>
        <mxCell id="gn4h22Pv78Su0KAkNXE8-78" value="" style="verticalLabelPosition=bottom;html=1;verticalAlign=top;align=center;strokeColor=none;fillColor=#00BEF2;shape=mxgraph.azure.virtual_machine;" parent="1" vertex="1">
          <mxGeometry x="-233.08" y="4280" width="50" height="40" as="geometry" />
        </mxCell>
        <mxCell id="gn4h22Pv78Su0KAkNXE8-79" value="&amp;lt;/&amp;gt;" style="rounded=1;arcSize=5;fillColor=#0065FF;strokeColor=none;fontColor=#ffffff;align=center;verticalAlign=middle;whiteSpace=wrap;fontSize=10;fontStyle=1;html=1;sketch=0;" parent="1" vertex="1">
          <mxGeometry x="-191.54000000000002" y="4150" width="50" height="30" as="geometry" />
        </mxCell>
        <mxCell id="gn4h22Pv78Su0KAkNXE8-80" value="&amp;lt;/&amp;gt;" style="rounded=1;arcSize=5;fillColor=#0065FF;strokeColor=none;fontColor=#ffffff;align=center;verticalAlign=middle;whiteSpace=wrap;fontSize=10;fontStyle=1;html=1;sketch=0;" parent="1" vertex="1">
          <mxGeometry x="-191.54000000000002" y="4190" width="50" height="30" as="geometry" />
        </mxCell>
        <mxCell id="gn4h22Pv78Su0KAkNXE8-81" value="&amp;lt;/&amp;gt;" style="rounded=1;arcSize=5;fillColor=#0065FF;strokeColor=none;fontColor=#ffffff;align=center;verticalAlign=middle;whiteSpace=wrap;fontSize=10;fontStyle=1;html=1;sketch=0;" parent="1" vertex="1">
          <mxGeometry x="-191.54000000000002" y="4230" width="50" height="30" as="geometry" />
        </mxCell>
        <mxCell id="gn4h22Pv78Su0KAkNXE8-82" value="&amp;lt;/&amp;gt;" style="rounded=1;arcSize=5;fillColor=#0065FF;strokeColor=none;fontColor=#ffffff;align=center;verticalAlign=middle;whiteSpace=wrap;fontSize=10;fontStyle=1;html=1;sketch=0;" parent="1" vertex="1">
          <mxGeometry x="-191.54000000000002" y="4260" width="50" height="30" as="geometry" />
        </mxCell>
        <mxCell id="gn4h22Pv78Su0KAkNXE8-83" value="Each Module of Application can be develop by different Language&lt;br&gt;Each deployment can have their own package - Jar / War/Zip" style="text;html=1;strokeColor=none;fillColor=none;align=center;verticalAlign=middle;whiteSpace=wrap;rounded=0;fontStyle=1;fontSize=16;" parent="1" vertex="1">
          <mxGeometry x="-257.78" y="4140" width="877.78" height="30" as="geometry" />
        </mxCell>
        <mxCell id="gn4h22Pv78Su0KAkNXE8-84" value="Microservice" style="rounded=1;whiteSpace=wrap;html=1;fontStyle=1;fontSize=16;" parent="1" vertex="1">
          <mxGeometry x="85" y="4360" width="120" height="60" as="geometry" />
        </mxCell>
        <mxCell id="gn4h22Pv78Su0KAkNXE8-85" value="Container" style="rounded=1;whiteSpace=wrap;html=1;fontStyle=1;fontSize=15;" parent="1" vertex="1">
          <mxGeometry x="83" y="4450" width="120" height="60" as="geometry" />
        </mxCell>
        <mxCell id="gn4h22Pv78Su0KAkNXE8-86" value="" style="ellipse;whiteSpace=wrap;html=1;aspect=fixed;" parent="1" vertex="1">
          <mxGeometry x="-120" y="4640" width="40" height="40" as="geometry" />
        </mxCell>
        <mxCell id="gn4h22Pv78Su0KAkNXE8-88" value="" style="ellipse;whiteSpace=wrap;html=1;aspect=fixed;fillColor=none;" parent="1" vertex="1">
          <mxGeometry x="-141.54" y="4620" width="90" height="90" as="geometry" />
        </mxCell>
        <mxCell id="gn4h22Pv78Su0KAkNXE8-89" value="" style="ellipse;whiteSpace=wrap;html=1;aspect=fixed;fillColor=none;" parent="1" vertex="1">
          <mxGeometry x="-165" y="4595" width="140" height="140" as="geometry" />
        </mxCell>
        <mxCell id="gn4h22Pv78Su0KAkNXE8-90" value="" style="ellipse;whiteSpace=wrap;html=1;aspect=fixed;fillColor=none;" parent="1" vertex="1">
          <mxGeometry x="-183.08" y="4577.5" width="175" height="175" as="geometry" />
        </mxCell>
        <mxCell id="gn4h22Pv78Su0KAkNXE8-91" value="" style="ellipse;whiteSpace=wrap;html=1;aspect=fixed;fillColor=#dae8fc;strokeColor=#6c8ebf;" parent="1" vertex="1">
          <mxGeometry x="126.75" y="4660" width="32.5" height="32.5" as="geometry" />
        </mxCell>
        <mxCell id="gn4h22Pv78Su0KAkNXE8-92" value="Docker Image&amp;nbsp;&lt;br&gt;( Abstract Part )" style="text;html=1;strokeColor=none;fillColor=none;align=left;verticalAlign=middle;whiteSpace=wrap;rounded=0;fontStyle=1" parent="1" vertex="1">
          <mxGeometry x="88.75" y="4710" width="201.25" height="30" as="geometry" />
        </mxCell>
        <mxCell id="gn4h22Pv78Su0KAkNXE8-93" value="" style="rounded=0;whiteSpace=wrap;html=1;" parent="1" vertex="1">
          <mxGeometry x="325" y="4595" width="185" height="185" as="geometry" />
        </mxCell>
        <mxCell id="gn4h22Pv78Su0KAkNXE8-94" value="" style="ellipse;whiteSpace=wrap;html=1;aspect=fixed;fillColor=#dae8fc;strokeColor=#6c8ebf;" parent="1" vertex="1">
          <mxGeometry x="343.75" y="4607.5" width="32.5" height="32.5" as="geometry" />
        </mxCell>
        <mxCell id="gn4h22Pv78Su0KAkNXE8-95" value="Docker Engine" style="rounded=0;whiteSpace=wrap;html=1;" parent="1" vertex="1">
          <mxGeometry x="325" y="4657.5" width="185" height="60" as="geometry" />
        </mxCell>
        <mxCell id="gn4h22Pv78Su0KAkNXE8-96" value="&amp;lt;/&amp;gt;" style="rounded=1;arcSize=5;fillColor=#0065FF;strokeColor=none;fontColor=#ffffff;align=center;verticalAlign=middle;whiteSpace=wrap;fontSize=12;fontStyle=1;html=1;sketch=0;" parent="1" vertex="1">
          <mxGeometry x="330" y="4671.5" width="32" height="32" as="geometry" />
        </mxCell>
        <mxCell id="gn4h22Pv78Su0KAkNXE8-97" value="&amp;lt;/&amp;gt;" style="rounded=1;arcSize=5;fillColor=#0065FF;strokeColor=none;fontColor=#ffffff;align=center;verticalAlign=middle;whiteSpace=wrap;fontSize=12;fontStyle=1;html=1;sketch=0;" parent="1" vertex="1">
          <mxGeometry x="468" y="4660.5" width="32" height="32" as="geometry" />
        </mxCell>
        <mxCell id="gn4h22Pv78Su0KAkNXE8-98" value="&amp;lt;/&amp;gt;" style="rounded=1;arcSize=5;fillColor=#0065FF;strokeColor=none;fontColor=#ffffff;align=center;verticalAlign=middle;whiteSpace=wrap;fontSize=12;fontStyle=1;html=1;sketch=0;" parent="1" vertex="1">
          <mxGeometry x="468" y="4703" width="32" height="32" as="geometry" />
        </mxCell>
        <mxCell id="gn4h22Pv78Su0KAkNXE8-99" value="" style="ellipse;whiteSpace=wrap;html=1;aspect=fixed;fillColor=#ffe6cc;strokeColor=#d79b00;" parent="1" vertex="1">
          <mxGeometry x="540" y="4660.5" width="32.5" height="32.5" as="geometry" />
        </mxCell>
        <mxCell id="gn4h22Pv78Su0KAkNXE8-100" value="Docker Registry" style="rounded=0;whiteSpace=wrap;html=1;" parent="1" vertex="1">
          <mxGeometry x="320" y="4460" width="230" height="60" as="geometry" />
        </mxCell>
        <mxCell id="gn4h22Pv78Su0KAkNXE8-101" value="" style="ellipse;whiteSpace=wrap;html=1;aspect=fixed;fillColor=#ffe6cc;strokeColor=#d79b00;" parent="1" vertex="1">
          <mxGeometry x="487.5" y="4463.75" width="32.5" height="32.5" as="geometry" />
        </mxCell>
        <mxCell id="gn4h22Pv78Su0KAkNXE8-102" value="" style="rounded=0;whiteSpace=wrap;html=1;" parent="1" vertex="1">
          <mxGeometry x="546" y="4250" width="98" height="90" as="geometry" />
        </mxCell>
        <mxCell id="gn4h22Pv78Su0KAkNXE8-103" value="AWS Cloud" style="sketch=0;outlineConnect=0;fontColor=#232F3E;gradientColor=none;strokeColor=#232F3E;fillColor=#ffffff;dashed=0;verticalLabelPosition=bottom;verticalAlign=top;align=center;html=1;fontSize=12;fontStyle=0;aspect=fixed;shape=mxgraph.aws4.resourceIcon;resIcon=mxgraph.aws4.aws_cloud;" parent="1" vertex="1">
          <mxGeometry x="690" y="4350" width="60" height="60" as="geometry" />
        </mxCell>
        <mxCell id="gn4h22Pv78Su0KAkNXE8-105" value="" style="verticalLabelPosition=bottom;html=1;verticalAlign=top;align=center;strokeColor=none;fillColor=#00BEF2;shape=mxgraph.azure.azure_subscription;" parent="1" vertex="1">
          <mxGeometry x="655" y="4435" width="110" height="90" as="geometry" />
        </mxCell>
        <mxCell id="gn4h22Pv78Su0KAkNXE8-106" value="AWS Container Service" style="rounded=0;whiteSpace=wrap;html=1;fontStyle=1" parent="1" vertex="1">
          <mxGeometry x="-31.25" y="4870" width="351.25" height="60" as="geometry" />
        </mxCell>
        <mxCell id="gn4h22Pv78Su0KAkNXE8-107" value="ECS" style="rounded=0;whiteSpace=wrap;html=1;" parent="1" vertex="1">
          <mxGeometry x="-268.08" y="5000" width="120" height="60" as="geometry" />
        </mxCell>
        <mxCell id="gn4h22Pv78Su0KAkNXE8-108" value="EKS" style="rounded=0;whiteSpace=wrap;html=1;" parent="1" vertex="1">
          <mxGeometry x="480.00000000000006" y="5000" width="120" height="60" as="geometry" />
        </mxCell>
        <mxCell id="gn4h22Pv78Su0KAkNXE8-109" value="" style="endArrow=none;html=1;rounded=0;exitX=1;exitY=1;exitDx=0;exitDy=0;" parent="1" source="gn4h22Pv78Su0KAkNXE8-107" edge="1">
          <mxGeometry width="50" height="50" relative="1" as="geometry">
            <mxPoint x="120" y="5240" as="sourcePoint" />
            <mxPoint x="80" y="5280" as="targetPoint" />
          </mxGeometry>
        </mxCell>
        <mxCell id="gn4h22Pv78Su0KAkNXE8-110" value="" style="endArrow=none;html=1;rounded=0;exitX=0;exitY=1;exitDx=0;exitDy=0;" parent="1" source="gn4h22Pv78Su0KAkNXE8-108" edge="1">
          <mxGeometry width="50" height="50" relative="1" as="geometry">
            <mxPoint x="-138" y="5070" as="sourcePoint" />
            <mxPoint x="160" y="5280" as="targetPoint" />
          </mxGeometry>
        </mxCell>
        <mxCell id="gn4h22Pv78Su0KAkNXE8-111" value="" style="sketch=0;points=[[0,0,0],[0.25,0,0],[0.5,0,0],[0.75,0,0],[1,0,0],[0,1,0],[0.25,1,0],[0.5,1,0],[0.75,1,0],[1,1,0],[0,0.25,0],[0,0.5,0],[0,0.75,0],[1,0.25,0],[1,0.5,0],[1,0.75,0]];outlineConnect=0;fontColor=#232F3E;gradientColor=#F78E04;gradientDirection=north;fillColor=#D05C17;strokeColor=#ffffff;dashed=0;verticalLabelPosition=bottom;verticalAlign=top;align=center;html=1;fontSize=12;fontStyle=0;aspect=fixed;shape=mxgraph.aws4.resourceIcon;resIcon=mxgraph.aws4.ec2;" parent="1" vertex="1">
          <mxGeometry x="82" y="5280" width="78" height="78" as="geometry" />
        </mxCell>
        <mxCell id="gn4h22Pv78Su0KAkNXE8-112" value="Farget" style="text;html=1;strokeColor=none;fillColor=none;align=center;verticalAlign=middle;whiteSpace=wrap;rounded=0;fontStyle=1;fontSize=16;" parent="1" vertex="1">
          <mxGeometry x="135" y="5015" width="60" height="30" as="geometry" />
        </mxCell>
        <mxCell id="gn4h22Pv78Su0KAkNXE8-113" value="" style="endArrow=none;html=1;rounded=0;exitX=1;exitY=0.5;exitDx=0;exitDy=0;" parent="1" source="gn4h22Pv78Su0KAkNXE8-107" edge="1">
          <mxGeometry width="50" height="50" relative="1" as="geometry">
            <mxPoint x="120" y="5240" as="sourcePoint" />
            <mxPoint x="110" y="5030" as="targetPoint" />
          </mxGeometry>
        </mxCell>
        <mxCell id="gn4h22Pv78Su0KAkNXE8-114" value="" style="endArrow=none;html=1;rounded=0;exitX=1;exitY=0.5;exitDx=0;exitDy=0;" parent="1" edge="1">
          <mxGeometry width="50" height="50" relative="1" as="geometry">
            <mxPoint x="220" y="5029.5" as="sourcePoint" />
            <mxPoint x="478" y="5029.5" as="targetPoint" />
          </mxGeometry>
        </mxCell>
        <mxCell id="gn4h22Pv78Su0KAkNXE8-115" value="ECS is Free but you need to pay Compute Charges" style="text;html=1;strokeColor=none;fillColor=none;align=center;verticalAlign=middle;whiteSpace=wrap;rounded=0;fontStyle=1;fontSize=18;" parent="1" vertex="1">
          <mxGeometry x="-513" y="5110" width="423" height="30" as="geometry" />
        </mxCell>
        <mxCell id="gn4h22Pv78Su0KAkNXE8-116" value="" style="rounded=0;whiteSpace=wrap;html=1;" parent="1" vertex="1">
          <mxGeometry x="-200" y="5490" width="290" height="170" as="geometry" />
        </mxCell>
        <mxCell id="gn4h22Pv78Su0KAkNXE8-117" value="Control Plane" style="text;html=1;strokeColor=none;fillColor=none;align=center;verticalAlign=middle;whiteSpace=wrap;rounded=0;fontStyle=1;fontSize=16;" parent="1" vertex="1">
          <mxGeometry x="-150" y="5670" width="140" height="30" as="geometry" />
        </mxCell>
        <mxCell id="gn4h22Pv78Su0KAkNXE8-118" value="" style="rounded=0;whiteSpace=wrap;html=1;" parent="1" vertex="1">
          <mxGeometry x="362" y="5440" width="250" height="300" as="geometry" />
        </mxCell>
        <mxCell id="gn4h22Pv78Su0KAkNXE8-119" value="Data Plane" style="text;html=1;strokeColor=none;fillColor=none;align=center;verticalAlign=middle;whiteSpace=wrap;rounded=0;fontStyle=1;fontSize=16;" parent="1" vertex="1">
          <mxGeometry x="417" y="5750" width="140" height="30" as="geometry" />
        </mxCell>
        <mxCell id="gn4h22Pv78Su0KAkNXE8-120" value="API" style="rounded=1;whiteSpace=wrap;html=1;fontStyle=1;fontSize=14;" parent="1" vertex="1">
          <mxGeometry x="-183.08" y="5510" width="83.08" height="30" as="geometry" />
        </mxCell>
        <mxCell id="gn4h22Pv78Su0KAkNXE8-122" value="ETCD" style="rounded=1;whiteSpace=wrap;html=1;fontStyle=1;fontSize=14;" parent="1" vertex="1">
          <mxGeometry x="-185" y="5575" width="83.08" height="30" as="geometry" />
        </mxCell>
        <mxCell id="gn4h22Pv78Su0KAkNXE8-123" value="" style="sketch=0;points=[[0,0,0],[0.25,0,0],[0.5,0,0],[0.75,0,0],[1,0,0],[0,1,0],[0.25,1,0],[0.5,1,0],[0.75,1,0],[1,1,0],[0,0.25,0],[0,0.5,0],[0,0.75,0],[1,0.25,0],[1,0.5,0],[1,0.75,0]];outlineConnect=0;fontColor=#232F3E;gradientColor=#F78E04;gradientDirection=north;fillColor=#D05C17;strokeColor=#ffffff;dashed=0;verticalLabelPosition=bottom;verticalAlign=top;align=center;html=1;fontSize=12;fontStyle=0;aspect=fixed;shape=mxgraph.aws4.resourceIcon;resIcon=mxgraph.aws4.ec2;" parent="1" vertex="1">
          <mxGeometry x="390" y="5490" width="78" height="78" as="geometry" />
        </mxCell>
        <mxCell id="gn4h22Pv78Su0KAkNXE8-124" value="" style="sketch=0;points=[[0,0,0],[0.25,0,0],[0.5,0,0],[0.75,0,0],[1,0,0],[0,1,0],[0.25,1,0],[0.5,1,0],[0.75,1,0],[1,1,0],[0,0.25,0],[0,0.5,0],[0,0.75,0],[1,0.25,0],[1,0.5,0],[1,0.75,0]];outlineConnect=0;fontColor=#232F3E;gradientColor=#F78E04;gradientDirection=north;fillColor=#D05C17;strokeColor=#ffffff;dashed=0;verticalLabelPosition=bottom;verticalAlign=top;align=center;html=1;fontSize=12;fontStyle=0;aspect=fixed;shape=mxgraph.aws4.resourceIcon;resIcon=mxgraph.aws4.ec2;" parent="1" vertex="1">
          <mxGeometry x="501" y="5490" width="78" height="78" as="geometry" />
        </mxCell>
        <mxCell id="gn4h22Pv78Su0KAkNXE8-125" value="5 Node" style="text;html=1;strokeColor=none;fillColor=none;align=center;verticalAlign=middle;whiteSpace=wrap;rounded=0;" parent="1" vertex="1">
          <mxGeometry x="-57.5" y="5530" width="60" height="30" as="geometry" />
        </mxCell>
        <mxCell id="gn4h22Pv78Su0KAkNXE8-126" value="Scalability and HA" style="rounded=1;whiteSpace=wrap;html=1;" parent="1" vertex="1">
          <mxGeometry x="-31.25" y="5845" width="171.25" height="60" as="geometry" />
        </mxCell>
        <mxCell id="gn4h22Pv78Su0KAkNXE8-127" value="" style="sketch=0;points=[[0,0,0],[0.25,0,0],[0.5,0,0],[0.75,0,0],[1,0,0],[0,1,0],[0.25,1,0],[0.5,1,0],[0.75,1,0],[1,1,0],[0,0.25,0],[0,0.5,0],[0,0.75,0],[1,0.25,0],[1,0.5,0],[1,0.75,0]];outlineConnect=0;fontColor=#232F3E;gradientColor=#F78E04;gradientDirection=north;fillColor=#D05C17;strokeColor=#ffffff;dashed=0;verticalLabelPosition=bottom;verticalAlign=top;align=center;html=1;fontSize=12;fontStyle=0;aspect=fixed;shape=mxgraph.aws4.resourceIcon;resIcon=mxgraph.aws4.ec2;" parent="1" vertex="1">
          <mxGeometry x="-234" y="5960" width="78" height="78" as="geometry" />
        </mxCell>
        <mxCell id="gn4h22Pv78Su0KAkNXE8-128" value="" style="sketch=0;points=[[0,0,0],[0.25,0,0],[0.5,0,0],[0.75,0,0],[1,0,0],[0,1,0],[0.25,1,0],[0.5,1,0],[0.75,1,0],[1,1,0],[0,0.25,0],[0,0.5,0],[0,0.75,0],[1,0.25,0],[1,0.5,0],[1,0.75,0]];outlineConnect=0;fontColor=#232F3E;gradientColor=#F78E04;gradientDirection=north;fillColor=#D05C17;strokeColor=#ffffff;dashed=0;verticalLabelPosition=bottom;verticalAlign=top;align=center;html=1;fontSize=12;fontStyle=0;aspect=fixed;shape=mxgraph.aws4.resourceIcon;resIcon=mxgraph.aws4.ec2;" parent="1" vertex="1">
          <mxGeometry x="-90" y="5960" width="78" height="78" as="geometry" />
        </mxCell>
        <mxCell id="gn4h22Pv78Su0KAkNXE8-129" value="" style="sketch=0;points=[[0,0,0],[0.25,0,0],[0.5,0,0],[0.75,0,0],[1,0,0],[0,1,0],[0.25,1,0],[0.5,1,0],[0.75,1,0],[1,1,0],[0,0.25,0],[0,0.5,0],[0,0.75,0],[1,0.25,0],[1,0.5,0],[1,0.75,0]];outlineConnect=0;fontColor=#232F3E;gradientColor=#F78E04;gradientDirection=north;fillColor=#D05C17;strokeColor=#ffffff;dashed=0;verticalLabelPosition=bottom;verticalAlign=top;align=center;html=1;fontSize=12;fontStyle=0;aspect=fixed;shape=mxgraph.aws4.resourceIcon;resIcon=mxgraph.aws4.ec2;" parent="1" vertex="1">
          <mxGeometry x="60" y="5960" width="78" height="78" as="geometry" />
        </mxCell>
        <mxCell id="gn4h22Pv78Su0KAkNXE8-130" value="10&amp;nbsp;&lt;br style=&quot;font-size: 16px;&quot;&gt;100 Server" style="text;html=1;strokeColor=none;fillColor=none;align=left;verticalAlign=middle;whiteSpace=wrap;rounded=0;fontStyle=1;fontSize=16;" parent="1" vertex="1">
          <mxGeometry x="294.75" y="5900" width="245.25" height="30" as="geometry" />
        </mxCell>
        <mxCell id="gn4h22Pv78Su0KAkNXE8-132" value="CPU Utilization&lt;br&gt;Memory&lt;br&gt;Data In" style="text;html=1;strokeColor=none;fillColor=none;align=left;verticalAlign=middle;whiteSpace=wrap;rounded=0;fontStyle=1;fontSize=16;" parent="1" vertex="1">
          <mxGeometry x="304.75" y="5984" width="245.25" height="30" as="geometry" />
        </mxCell>
        <mxCell id="gn4h22Pv78Su0KAkNXE8-133" value="" style="outlineConnect=0;dashed=0;verticalLabelPosition=bottom;verticalAlign=top;align=center;html=1;shape=mxgraph.aws3.application_load_balancer;fillColor=#F58534;gradientColor=none;" parent="1" vertex="1">
          <mxGeometry x="-70" y="6090" width="69" height="72" as="geometry" />
        </mxCell>
        <mxCell id="gn4h22Pv78Su0KAkNXE8-134" value="" style="ellipse;whiteSpace=wrap;html=1;aspect=fixed;" parent="1" vertex="1">
          <mxGeometry x="170" y="6086" width="80" height="80" as="geometry" />
        </mxCell>
        <mxCell id="gn4h22Pv78Su0KAkNXE8-135" value="Autoscaling Group" style="text;strokeColor=none;fillColor=none;align=left;verticalAlign=middle;whiteSpace=wrap;rounded=0;fontStyle=1;fontSize=16;" parent="1" vertex="1">
          <mxGeometry x="291" y="6100" width="245.25" height="30" as="geometry" />
        </mxCell>
        <mxCell id="6J16umm77Ar_8yl9i-pc-1" value="&lt;b&gt;&lt;font style=&quot;font-size: 18px;&quot;&gt;Customer wants to run an Application in all different part of the globe where they operate.&amp;nbsp;&lt;/font&gt;&lt;/b&gt;" style="text;html=1;strokeColor=none;fillColor=none;align=left;verticalAlign=middle;whiteSpace=wrap;rounded=0;" vertex="1" parent="1">
          <mxGeometry x="-173.46" y="6410" width="693.46" height="30" as="geometry" />
        </mxCell>
        <mxCell id="6J16umm77Ar_8yl9i-pc-2" value="" style="sketch=0;points=[[0,0,0],[0.25,0,0],[0.5,0,0],[0.75,0,0],[1,0,0],[0,1,0],[0.25,1,0],[0.5,1,0],[0.75,1,0],[1,1,0],[0,0.25,0],[0,0.5,0],[0,0.75,0],[1,0.25,0],[1,0.5,0],[1,0.75,0]];outlineConnect=0;fontColor=#232F3E;gradientColor=#F78E04;gradientDirection=north;fillColor=#D05C17;strokeColor=#ffffff;dashed=0;verticalLabelPosition=bottom;verticalAlign=top;align=center;html=1;fontSize=12;fontStyle=0;aspect=fixed;shape=mxgraph.aws4.resourceIcon;resIcon=mxgraph.aws4.ec2;" vertex="1" parent="1">
          <mxGeometry x="-101.75" y="6630" width="78" height="78" as="geometry" />
        </mxCell>
        <mxCell id="6J16umm77Ar_8yl9i-pc-3" value="" style="sketch=0;points=[[0,0,0],[0.25,0,0],[0.5,0,0],[0.75,0,0],[1,0,0],[0,1,0],[0.25,1,0],[0.5,1,0],[0.75,1,0],[1,1,0],[0,0.25,0],[0,0.5,0],[0,0.75,0],[1,0.25,0],[1,0.5,0],[1,0.75,0]];outlineConnect=0;fontColor=#232F3E;gradientColor=#F78E04;gradientDirection=north;fillColor=#D05C17;strokeColor=#ffffff;dashed=0;verticalLabelPosition=bottom;verticalAlign=top;align=center;html=1;fontSize=12;fontStyle=0;aspect=fixed;shape=mxgraph.aws4.resourceIcon;resIcon=mxgraph.aws4.ec2;" vertex="1" parent="1">
          <mxGeometry x="328.25" y="6630" width="78" height="78" as="geometry" />
        </mxCell>
        <mxCell id="6J16umm77Ar_8yl9i-pc-4" value="" style="sketch=0;points=[[0,0,0],[0.25,0,0],[0.5,0,0],[0.75,0,0],[1,0,0],[0,1,0],[0.25,1,0],[0.5,1,0],[0.75,1,0],[1,1,0],[0,0.25,0],[0,0.5,0],[0,0.75,0],[1,0.25,0],[1,0.5,0],[1,0.75,0]];outlineConnect=0;fontColor=#232F3E;gradientColor=#F78E04;gradientDirection=north;fillColor=#D05C17;strokeColor=#ffffff;dashed=0;verticalLabelPosition=bottom;verticalAlign=top;align=center;html=1;fontSize=12;fontStyle=0;aspect=fixed;shape=mxgraph.aws4.resourceIcon;resIcon=mxgraph.aws4.ec2;" vertex="1" parent="1">
          <mxGeometry x="212.25" y="6630" width="78" height="78" as="geometry" />
        </mxCell>
        <mxCell id="6J16umm77Ar_8yl9i-pc-5" value="" style="sketch=0;points=[[0,0,0],[0.25,0,0],[0.5,0,0],[0.75,0,0],[1,0,0],[0,1,0],[0.25,1,0],[0.5,1,0],[0.75,1,0],[1,1,0],[0,0.25,0],[0,0.5,0],[0,0.75,0],[1,0.25,0],[1,0.5,0],[1,0.75,0]];outlineConnect=0;fontColor=#232F3E;gradientColor=#F78E04;gradientDirection=north;fillColor=#D05C17;strokeColor=#ffffff;dashed=0;verticalLabelPosition=bottom;verticalAlign=top;align=center;html=1;fontSize=12;fontStyle=0;aspect=fixed;shape=mxgraph.aws4.resourceIcon;resIcon=mxgraph.aws4.ec2;" vertex="1" parent="1">
          <mxGeometry x="117.25" y="6630" width="78" height="78" as="geometry" />
        </mxCell>
        <mxCell id="6J16umm77Ar_8yl9i-pc-6" value="" style="sketch=0;points=[[0,0,0],[0.25,0,0],[0.5,0,0],[0.75,0,0],[1,0,0],[0,1,0],[0.25,1,0],[0.5,1,0],[0.75,1,0],[1,1,0],[0,0.25,0],[0,0.5,0],[0,0.75,0],[1,0.25,0],[1,0.5,0],[1,0.75,0]];outlineConnect=0;fontColor=#232F3E;gradientColor=#F78E04;gradientDirection=north;fillColor=#D05C17;strokeColor=#ffffff;dashed=0;verticalLabelPosition=bottom;verticalAlign=top;align=center;html=1;fontSize=12;fontStyle=0;aspect=fixed;shape=mxgraph.aws4.resourceIcon;resIcon=mxgraph.aws4.ec2;" vertex="1" parent="1">
          <mxGeometry x="7.25" y="6630" width="78" height="78" as="geometry" />
        </mxCell>
        <mxCell id="6J16umm77Ar_8yl9i-pc-7" value="" style="outlineConnect=0;dashed=0;verticalLabelPosition=bottom;verticalAlign=top;align=center;html=1;shape=mxgraph.aws3.rds_db_instance;fillColor=#2E73B8;gradientColor=none;" vertex="1" parent="1">
          <mxGeometry x="7.25" y="6760" width="65" height="80" as="geometry" />
        </mxCell>
        <mxCell id="6J16umm77Ar_8yl9i-pc-8" value="" style="outlineConnect=0;dashed=0;verticalLabelPosition=bottom;verticalAlign=top;align=center;html=1;shape=mxgraph.aws3.rds_db_instance_read_replica;fillColor=#2E73B8;gradientColor=none;" vertex="1" parent="1">
          <mxGeometry x="167.5" y="6760" width="74.75" height="90" as="geometry" />
        </mxCell>
        <mxCell id="6J16umm77Ar_8yl9i-pc-9" value="" style="outlineConnect=0;dashed=0;verticalLabelPosition=bottom;verticalAlign=top;align=center;html=1;shape=mxgraph.aws3.rds_db_instance_read_replica;fillColor=#2E73B8;gradientColor=none;" vertex="1" parent="1">
          <mxGeometry x="302.5" y="6755" width="74.75" height="90" as="geometry" />
        </mxCell>
        <mxCell id="6J16umm77Ar_8yl9i-pc-10" value="" style="outlineConnect=0;dashed=0;verticalLabelPosition=bottom;verticalAlign=top;align=center;html=1;shape=mxgraph.aws3.classic_load_balancer;fillColor=#F58534;gradientColor=none;rotation=-90;" vertex="1" parent="1">
          <mxGeometry x="117.69" y="6530" width="69" height="72" as="geometry" />
        </mxCell>
        <mxCell id="6J16umm77Ar_8yl9i-pc-11" value="" style="sketch=0;outlineConnect=0;fontColor=#232F3E;gradientColor=none;fillColor=#3F8624;strokeColor=none;dashed=0;verticalLabelPosition=bottom;verticalAlign=top;align=center;html=1;fontSize=12;fontStyle=0;aspect=fixed;pointerEvents=1;shape=mxgraph.aws4.bucket;" vertex="1" parent="1">
          <mxGeometry x="-165" y="6755" width="75" height="78" as="geometry" />
        </mxCell>
        <mxCell id="6J16umm77Ar_8yl9i-pc-12" value="" style="ellipse;whiteSpace=wrap;html=1;" vertex="1" parent="1">
          <mxGeometry x="445" y="6460" width="145" height="120" as="geometry" />
        </mxCell>
        <mxCell id="6J16umm77Ar_8yl9i-pc-13" value="" style="ellipse;whiteSpace=wrap;html=1;" vertex="1" parent="1">
          <mxGeometry x="655" y="6550" width="145" height="120" as="geometry" />
        </mxCell>
        <mxCell id="6J16umm77Ar_8yl9i-pc-14" value="" style="ellipse;whiteSpace=wrap;html=1;" vertex="1" parent="1">
          <mxGeometry x="440" y="6670" width="145" height="120" as="geometry" />
        </mxCell>
        <mxCell id="6J16umm77Ar_8yl9i-pc-15" value="Configuration Drift" style="text;html=1;strokeColor=none;fillColor=none;align=center;verticalAlign=middle;whiteSpace=wrap;rounded=0;fontStyle=1;fontSize=20;" vertex="1" parent="1">
          <mxGeometry x="590" y="6400" width="175" height="30" as="geometry" />
        </mxCell>
        <mxCell id="6J16umm77Ar_8yl9i-pc-16" value="Everything as a Code" style="rounded=1;whiteSpace=wrap;html=1;fontStyle=1;fontSize=15;" vertex="1" parent="1">
          <mxGeometry x="10" y="6900" width="240" height="60" as="geometry" />
        </mxCell>
        <mxCell id="6J16umm77Ar_8yl9i-pc-17" value="" style="dashed=0;outlineConnect=0;html=1;align=center;labelPosition=center;verticalLabelPosition=bottom;verticalAlign=top;shape=mxgraph.weblogos.json" vertex="1" parent="1">
          <mxGeometry x="562.77" y="6833" width="70" height="75.8" as="geometry" />
        </mxCell>
        <mxCell id="6J16umm77Ar_8yl9i-pc-18" value="" style="shape=image;html=1;verticalAlign=top;verticalLabelPosition=bottom;labelBackgroundColor=#ffffff;imageAspect=0;aspect=fixed;image=https://cdn1.iconfinder.com/data/icons/hawcons/32/699614-icon-103-document-file-yml-128.png" vertex="1" parent="1">
          <mxGeometry x="561" y="6930" width="128" height="128" as="geometry" />
        </mxCell>
        <mxCell id="6J16umm77Ar_8yl9i-pc-19" value="Network as Code" style="rounded=0;whiteSpace=wrap;html=1;fontStyle=1;fontSize=14;" vertex="1" parent="1">
          <mxGeometry x="-170" y="7014" width="120" height="60" as="geometry" />
        </mxCell>
        <mxCell id="6J16umm77Ar_8yl9i-pc-20" value="Database As A Code" style="rounded=0;whiteSpace=wrap;html=1;fontStyle=1;fontSize=14;" vertex="1" parent="1">
          <mxGeometry x="25" y="7014" width="120" height="60" as="geometry" />
        </mxCell>
        <mxCell id="6J16umm77Ar_8yl9i-pc-21" value="Infra as a Code&lt;br&gt;(IAC)" style="rounded=0;whiteSpace=wrap;html=1;fontStyle=1;fontSize=14;" vertex="1" parent="1">
          <mxGeometry x="245" y="7014" width="120" height="60" as="geometry" />
        </mxCell>
        <mxCell id="6J16umm77Ar_8yl9i-pc-22" value="Platform inbuilt" style="rounded=1;whiteSpace=wrap;html=1;fontStyle=1;fontSize=15;" vertex="1" parent="1">
          <mxGeometry x="102.5" y="7100" width="120" height="60" as="geometry" />
        </mxCell>
        <mxCell id="6J16umm77Ar_8yl9i-pc-23" value="Third Party" style="rounded=1;whiteSpace=wrap;html=1;fontStyle=1;fontSize=15;" vertex="1" parent="1">
          <mxGeometry x="424" y="7100" width="120" height="60" as="geometry" />
        </mxCell>
        <mxCell id="6J16umm77Ar_8yl9i-pc-24" value="AWS&#xa;Command Line Interface" style="sketch=0;outlineConnect=0;fontColor=#232F3E;gradientColor=none;strokeColor=#ffffff;fillColor=#232F3E;dashed=0;verticalLabelPosition=middle;verticalAlign=bottom;align=center;html=1;whiteSpace=wrap;fontSize=10;fontStyle=1;spacing=3;shape=mxgraph.aws4.productIcon;prIcon=mxgraph.aws4.command_line_interface;" vertex="1" parent="1">
          <mxGeometry x="12.5" y="7190" width="80" height="120" as="geometry" />
        </mxCell>
        <mxCell id="6J16umm77Ar_8yl9i-pc-25" value="" style="outlineConnect=0;dashed=0;verticalLabelPosition=bottom;verticalAlign=top;align=center;html=1;shape=mxgraph.aws3.cloudfront;fillColor=#F58536;gradientColor=none;" vertex="1" parent="1">
          <mxGeometry x="151.75" y="7200" width="76.5" height="93" as="geometry" />
        </mxCell>
        <mxCell id="6J16umm77Ar_8yl9i-pc-26" value="terraform" style="text;html=1;strokeColor=#d6b656;fillColor=#fff2cc;align=center;verticalAlign=middle;whiteSpace=wrap;rounded=0;fontStyle=1;fontSize=18;" vertex="1" parent="1">
          <mxGeometry x="304.75" y="7210" width="90" height="30" as="geometry" />
        </mxCell>
        <mxCell id="6J16umm77Ar_8yl9i-pc-27" value="Ansible" style="text;html=1;strokeColor=#d6b656;fillColor=#fff2cc;align=center;verticalAlign=middle;whiteSpace=wrap;rounded=0;fontStyle=1;fontSize=18;" vertex="1" parent="1">
          <mxGeometry x="456" y="7210" width="90" height="30" as="geometry" />
        </mxCell>
        <mxCell id="6J16umm77Ar_8yl9i-pc-28" value="Chef" style="text;html=1;strokeColor=#d6b656;fillColor=#fff2cc;align=center;verticalAlign=middle;whiteSpace=wrap;rounded=0;fontStyle=1;fontSize=18;" vertex="1" parent="1">
          <mxGeometry x="595" y="7210" width="90" height="30" as="geometry" />
        </mxCell>
        <mxCell id="6J16umm77Ar_8yl9i-pc-29" value="Governance Architectrure" style="rounded=0;whiteSpace=wrap;html=1;fontStyle=1" vertex="1" parent="1">
          <mxGeometry x="-173.46" y="7400" width="173.46" height="70" as="geometry" />
        </mxCell>
        <mxCell id="6J16umm77Ar_8yl9i-pc-30" value="Physical&amp;nbsp; Architectrure" style="rounded=0;whiteSpace=wrap;html=1;fontStyle=1" vertex="1" parent="1">
          <mxGeometry x="48.26999999999998" y="7400" width="173.46" height="70" as="geometry" />
        </mxCell>
        <mxCell id="6J16umm77Ar_8yl9i-pc-31" value="Computer Architectrure" style="rounded=0;whiteSpace=wrap;html=1;fontStyle=1" vertex="1" parent="1">
          <mxGeometry x="302.5" y="7400" width="173.46" height="70" as="geometry" />
        </mxCell>
        <mxCell id="6J16umm77Ar_8yl9i-pc-32" value="Network Architectrure" style="rounded=0;whiteSpace=wrap;html=1;fontStyle=1" vertex="1" parent="1">
          <mxGeometry x="542" y="7400" width="173.46" height="70" as="geometry" />
        </mxCell>
        <mxCell id="6J16umm77Ar_8yl9i-pc-34" value="Data Architectrure" style="rounded=0;whiteSpace=wrap;html=1;fontStyle=1" vertex="1" parent="1">
          <mxGeometry x="-174.46000000000004" y="7520" width="173.46" height="70" as="geometry" />
        </mxCell>
        <mxCell id="6J16umm77Ar_8yl9i-pc-35" value="Serverless Architectrure" style="rounded=0;whiteSpace=wrap;html=1;fontStyle=1" vertex="1" parent="1">
          <mxGeometry x="44.99999999999997" y="7520" width="173.46" height="70" as="geometry" />
        </mxCell>
        <mxCell id="6J16umm77Ar_8yl9i-pc-36" value="Security Architectrure" style="rounded=0;whiteSpace=wrap;html=1;fontStyle=1" vertex="1" parent="1">
          <mxGeometry x="302.5" y="7520" width="173.46" height="70" as="geometry" />
        </mxCell>
        <mxCell id="6J16umm77Ar_8yl9i-pc-37" value="HLD/LLD/Execution" style="rounded=0;whiteSpace=wrap;html=1;fontStyle=1" vertex="1" parent="1">
          <mxGeometry x="542" y="7520" width="173.46" height="70" as="geometry" />
        </mxCell>
        <mxCell id="6J16umm77Ar_8yl9i-pc-38" value="Costing &amp;amp; ROI" style="rounded=0;whiteSpace=wrap;html=1;fontStyle=1" vertex="1" parent="1">
          <mxGeometry x="159.25" y="7680" width="173.46" height="70" as="geometry" />
        </mxCell>
      </root>
    </mxGraphModel>
  </diagram>
</mxfile>
